<svg width="89" height="90" viewBox="0 0 89 90" fill="none" xmlns="http://www.w3.org/2000/svg">
<path fill-rule="evenodd" clip-rule="evenodd" d="M41.4773 5.09638L32.9546 23.7831L41.4773 42.4699H50L41.4773 23.7831L50 5.09638H41.4773Z" fill="white"/>
<path fill-rule="evenodd" clip-rule="evenodd" d="M8.23863 5.09638L16.7614 23.7831L8.23863 42.4699H0L8.52274 23.7831L0 5.09638H8.23863Z" fill="white"/>
<path fill-rule="evenodd" clip-rule="evenodd" d="M5.96592 8.49398L24.716 16.988L43.4659 8.49398V0L24.716 8.49398L5.96592 0V8.49398Z" fill="white"/>
<path fill-rule="evenodd" clip-rule="evenodd" d="M5.96592 38.506L24.716 30.0121L43.4659 38.506V47L24.716 38.506L5.96592 47V38.506Z" fill="white"/>
<path fill-rule="evenodd" clip-rule="evenodd" d="M37.0858 90L75.5408 74.39L89 35.5021L76.9142 24L63.4549 62.888L25 78.4979L37.0858 90Z" fill="white"/>
</svg>
