<svg width="86" height="84" viewBox="0 0 86 84" fill="none" xmlns="http://www.w3.org/2000/svg">
<path fill-rule="evenodd" clip-rule="evenodd" d="M74.5332 15.1429L62.7798 40.8571L74.5332 66.5714H86L74.2466 40.8571L86 15.1429H74.5332Z" fill="white"/>
<path fill-rule="evenodd" clip-rule="evenodd" d="M11.4666 15.1429L23.22 40.8571L11.4666 66.5714H0L11.7533 40.8571L0 15.1429H11.4666Z" fill="white"/>
<path fill-rule="evenodd" clip-rule="evenodd" d="M17.1999 11.4286L42.9999 23.1429L69.0866 11.4286V0L42.9999 11.7143L17.1999 0V11.4286Z" fill="white"/>
<path fill-rule="evenodd" clip-rule="evenodd" d="M17.1999 72.5714L42.9999 60.8572L69.0866 72.5714V84L42.9999 72.2857L17.1999 84V72.5714Z" fill="white"/>
<path fill-rule="evenodd" clip-rule="evenodd" d="M53.6067 33.1429L49.5932 41.7143L53.6067 50.2857H57.3333L53.6067 41.7143L57.3333 33.1429H53.6067Z" fill="white"/>
<path fill-rule="evenodd" clip-rule="evenodd" d="M32.3932 33.1429L36.4066 41.7143L32.3932 50.2857H28.6666L32.3932 41.7143L28.6666 33.1429H32.3932Z" fill="white"/>
<path fill-rule="evenodd" clip-rule="evenodd" d="M34.4001 31.7143L43.0001 35.7143L51.6 31.7143V28L43.0001 32L34.4001 28V31.7143Z" fill="white"/>
<path fill-rule="evenodd" clip-rule="evenodd" d="M34.4001 52.2857L43.0001 48.2857L51.6 52.2857V56L43.0001 52.2857L34.4001 56V52.2857Z" fill="white"/>
</svg>
