<svg width="24" height="24" viewBox="0 0 24 24" fill="none" xmlns="http://www.w3.org/2000/svg">
<rect width="24" height="24" rx="12" fill="#2B2D33"/>
<path d="M12 7.40625C11.8058 7.40625 11.6484 7.56366 11.6484 7.75781C11.6484 7.95197 11.8058 8.10937 12 8.10937C13.1633 8.10937 14.1097 9.05564 14.1097 10.2187C14.1097 10.4129 14.2671 10.5703 14.4613 10.5703C14.6554 10.5703 14.8128 10.4129 14.8128 10.2187C14.8128 8.66794 13.551 7.40625 12 7.40625Z" fill="#FEE600"/>
<path d="M11.0936 6.09466C9.5052 6.42656 8.21731 7.70212 7.87843 9.30035C7.59228 10.6499 7.9449 12.0049 8.84586 13.0177C9.28627 13.5128 9.53884 14.1663 9.53884 14.8125V15.5156C9.53884 15.9834 9.84509 16.3808 10.2676 16.5185C10.4065 17.3394 11.119 18 11.9998 18C12.8803 18 13.593 17.3396 13.732 16.5185C14.1545 16.3808 14.4607 15.9834 14.4607 15.5156V14.8125C14.4607 14.165 14.7141 13.5193 15.1742 12.9944C15.8476 12.2261 16.2185 11.2404 16.2185 10.2187C16.2185 7.55705 13.7822 5.53296 11.0936 6.09466ZM11.9998 17.2969C11.5479 17.2969 11.1516 16.9859 11.0053 16.5679H12.9942C12.8479 16.9859 12.4517 17.2969 11.9998 17.2969ZM13.7576 15.5156C13.7576 15.7095 13.5999 15.8672 13.406 15.8672H10.5935C10.3997 15.8672 10.242 15.7095 10.242 15.5156V15.164H13.7576V15.5156ZM14.6454 12.531C14.1551 13.0904 13.8535 13.7649 13.7769 14.4609H10.2227C10.1462 13.7645 9.84535 13.0834 9.37126 12.5504C8.62037 11.7063 8.32695 10.5748 8.56627 9.4462C8.84563 8.12869 9.91906 7.05841 11.2374 6.78295C13.488 6.31263 15.5154 8.00276 15.5154 10.2187C15.5154 11.0698 15.2064 11.891 14.6454 12.531Z" fill="#FEE600"/>
</svg>
