<svg width="396" height="351" viewBox="0 0 396 351" fill="none" xmlns="http://www.w3.org/2000/svg">
<g clip-path="url(#clip0)">
<path fill-rule="evenodd" clip-rule="evenodd" d="M198.086 65.7599C197.581 69.6281 198.254 69.2917 195.732 71.3099C192.201 74.0009 188.501 80.0555 186.483 84.4283C183.457 91.492 181.943 100.574 180.934 108.647C180.262 113.188 180.934 118.906 180.094 122.774C178.076 131.352 162.269 138.752 153.357 140.434C154.03 131.352 153.021 129.165 150.667 121.765C146.631 109.32 131.497 91.492 120.736 89.1374L114.682 90.8193V92.1648C123.594 94.0148 116.195 86.2783 130.152 97.3785C146.967 110.665 160.756 140.097 141.923 158.597C137.887 162.466 131.834 165.157 124.267 164.316C121.072 163.979 118.718 162.297 116.027 161.12C111.319 158.934 104.257 152.375 102.407 146.488C101.566 143.797 102.407 144.134 100.053 142.62C101.23 141.443 102.239 140.602 102.743 138.415C102.911 136.229 102.071 136.229 100.389 136.902C99.3802 138.92 98.5394 139.424 97.6987 141.106C100.557 145.984 97.6987 145.311 102.575 152.879C103.92 154.897 104.761 156.075 106.274 157.42C110.815 161.12 116.7 165.829 122.922 166.838C127.462 167.511 134.188 167.175 136.71 164.82L133.179 195.43H72.9802V177.434C77.6885 174.911 84.2464 175.416 84.0783 171.548C81.2197 171.379 76.0069 174.575 73.1483 174.911C72.4757 171.211 72.9802 162.297 72.9802 158.093C72.9802 155.402 72.812 152.375 72.9802 149.852C73.1483 146.825 75.1662 146.488 76.6796 144.806C82.0604 138.752 80.2108 143.293 88.9547 143.293C93.663 143.293 98.8757 138.92 97.1942 135.556C94.8401 135.724 96.3534 134.715 95.0082 137.07C93.8311 139.256 93.4948 141.274 88.2821 141.274C89.9636 139.256 96.0171 134.715 92.9904 130.847C89.7955 132.697 92.6541 139.593 81.8923 140.434L82.9012 138.92C83.2375 138.415 83.5738 138.247 83.9101 137.743C87.4413 133.538 90.2999 126.642 81.7241 123.615C78.5292 122.438 77.3522 122.774 77.184 118.906C79.5382 118.906 80.5471 120.083 83.2375 120.42C99.5483 122.942 94.3356 125.802 99.212 127.483C100.725 123.447 95.0082 120.588 90.8044 119.411C88.6184 118.738 85.7598 118.57 83.2375 118.065C80.3789 117.561 79.37 116.383 76.3433 116.215C72.9802 121.429 76.1751 122.942 79.8745 125.297H73.4846C72.9802 121.261 73.3165 115.711 73.3165 111.506C73.1483 104.947 74.1573 105.619 77.184 101.415C81.8923 95.0239 87.7776 92.1648 95.6808 91.6602C96.3534 90.4829 96.0171 91.492 95.849 89.642C86.0961 88.9693 78.8655 94.8557 73.9891 101.583C71.1305 105.451 71.2987 104.779 65.2452 104.779C57.6783 104.61 49.7751 104.947 42.0401 104.947C24.7203 104.779 32.2872 105.619 23.8796 109.656C23.8796 112.01 24.384 116.383 23.7114 118.401C23.3751 119.411 22.3662 120.251 21.8617 121.261L20.1802 128.997C19.6757 139.256 23.0388 137.406 23.8796 139.424C24.8885 142.115 21.3573 149.347 25.3929 150.356L31.6146 150.525C33.9687 150.525 36.8273 150.356 39.1815 150.525C40.863 154.393 42.5445 160.616 49.6069 164.484C56.5012 168.184 62.0503 167.679 70.4579 165.661C70.6261 173.398 69.449 192.234 71.4668 197.784H74.3254C83.0694 198.121 127.798 196.775 131.834 198.121L130.993 232.094C132.674 243.026 140.914 268.085 143.773 279.858L147.304 291.631C147.64 293.986 146.967 294.322 148.649 295.331C149.826 293.817 149.153 292.135 148.985 289.949C153.694 289.781 159.915 291.295 160.588 287.931C160.756 287.09 160.756 287.258 160.756 286.417L160.252 265.226C160.924 248.071 153.021 229.403 153.357 221.162C153.357 218.975 155.711 204.343 156.888 201.316C157.393 199.803 157.057 200.643 157.729 199.803C157.729 203.839 160.42 220.994 161.26 225.366C162.774 232.43 165.969 240.167 168.659 246.894C170.173 250.594 170.845 253.958 172.19 257.826C173.536 261.694 175.217 264.553 176.562 268.085C177.235 270.103 177.571 271.617 178.244 273.635L184.466 289.613H197.413C197.75 281.708 197.581 273.131 197.245 265.226C196.404 249.08 192.369 239.998 187.156 226.376C185.474 221.835 184.802 208.716 185.811 203.334C187.492 204.512 188.165 206.362 191.023 206.698C191.864 205.521 191.696 206.362 191.192 204.68C185.643 202.83 186.315 195.598 187.324 188.871L192.537 190.048L193.882 188.702L192.873 187.693C186.315 186.348 183.625 183.993 180.598 179.957C173.367 170.37 174.545 159.27 178.244 149.347C179.757 144.975 181.775 139.424 182.28 134.211C183.961 117.729 182.28 84.2601 197.918 72.6554C198.422 72.9918 198.254 72.8236 198.759 73.4963L201.617 77.8691C203.131 79.8873 203.803 91.6602 213.892 90.4829C215.742 87.1192 216.919 78.71 217.424 74.5054C225.159 76.0191 234.071 78.3737 241.133 69.4599C245.505 70.3008 252.231 72.6554 254.753 75.1782C251.727 77.5327 241.469 79.8873 236.761 81.0646C234.239 81.7373 229.531 82.4101 228.185 84.2601C224.654 89.3056 229.194 98.0512 230.539 102.929C231.044 105.115 229.867 105.115 229.867 107.638V112.347C229.699 116.047 230.876 114.029 231.38 117.056C231.717 119.579 231.212 119.915 232.725 121.597C234.575 123.615 237.097 125.129 240.797 125.465C241.133 128.661 242.142 130.679 243.655 132.865C245.673 135.724 245.673 135.388 249.373 137.07L246.01 138.079C244.664 139.929 243.655 139.761 243.151 142.115C241.133 151.197 252.399 151.702 253.576 146.656C252.736 144.47 250.213 140.938 249.709 139.256C255.258 135.724 257.444 139.761 263.497 133.033C266.86 129.333 268.038 124.456 273.418 122.774C274.596 121.261 276.445 120.42 277.959 118.57C283.508 111.338 276.277 102.76 275.268 99.733C278.631 100.742 286.534 105.115 294.606 107.133C294.269 111.506 292.588 115.374 293.597 119.915C294.269 122.438 298.305 127.147 300.491 127.652C304.022 128.493 307.722 123.111 308.899 121.261C310.917 118.065 310.076 112.851 310.917 108.647C315.457 107.638 319.324 107.806 324.032 106.292C326.555 105.451 333.449 102.592 335.299 102.929C335.635 110.329 335.299 117.561 335.299 124.961C335.299 131.183 336.308 133.706 333.449 134.211C330.422 134.883 284.18 133.37 278.967 135.22L278.463 144.975C287.88 145.815 289.561 138.079 291.579 138.079C293.26 141.443 286.871 145.984 280.985 146.993L278.799 147.497C278.631 147.497 278.463 147.497 278.463 147.665L275.941 184.33C276.445 188.198 278.631 190.889 279.808 194.421C270.392 190.048 267.029 199.971 271.401 204.68C273.25 206.53 281.49 208.884 281.49 198.793C282.667 200.307 283.003 201.821 283.508 203.839C284.012 205.689 284.517 207.203 285.189 208.884C288.72 219.312 291.747 234.617 289.225 245.38C283.171 270.272 272.914 279.017 271.569 283.39C277.959 284.904 283.676 285.576 290.906 285.913C292.588 287.763 291.915 287.595 294.101 288.772C295.446 288.435 294.774 290.117 295.11 287.258L293.765 285.745C297.801 285.408 300.491 285.913 301.332 283.558L302.004 277.84C302.677 260.685 304.863 241.512 305.536 223.516L308.058 176.929C308.226 174.407 308.226 162.97 309.739 162.129C311.085 163.811 311.253 199.971 312.094 208.212C312.598 213.089 312.766 218.975 312.766 224.021C312.766 234.28 314.616 243.699 314.616 254.126C314.616 260.349 315.793 279.354 318.483 283.222C322.351 285.408 334.122 284.735 339.334 284.399C339.839 285.072 342.361 290.622 344.043 288.772C344.715 287.09 342.697 286.922 341.52 284.231C349.76 280.531 349.592 288.435 348.583 262.367C348.415 257.826 348.246 252.444 347.742 248.071C347.238 243.194 347.574 238.485 347.238 233.607C346.901 229.235 345.556 224.694 345.556 220.489L343.706 192.234C343.034 188.198 342.025 182.648 342.361 178.443C352.45 175.752 350.937 161.457 351.609 157.42C351.441 158.093 351.441 157.757 350.096 158.429L349.424 161.961C349.255 168.016 347.238 175.079 342.529 176.593C343.202 173.734 345.052 174.911 345.892 170.707C346.397 168.352 347.069 164.316 346.565 162.466C345.22 163.138 345.556 162.129 344.547 167.343C344.211 169.698 343.706 170.875 343.034 172.893L341.688 165.829C341.52 163.138 341.184 161.12 341.016 158.429C339.503 156.243 338.998 147.497 338.325 144.638C334.626 144.47 327.9 140.938 329.581 137.911C332.44 138.584 331.936 142.284 338.157 142.452C337.989 139.088 337.316 136.565 337.485 132.529L337.653 101.415C340.848 100.742 344.715 98.5557 347.069 96.7057C348.751 95.5284 349.255 95.0239 350.937 93.8466C352.618 92.6693 354.3 91.9966 352.787 90.1465C351.778 89.642 351.946 90.1466 350.432 91.1557C341.688 97.883 341.857 97.5466 330.254 101.583C306.713 109.824 294.101 105.115 274.259 95.6966C271.737 94.5193 273.082 96.033 271.064 94.3512C266.188 90.1465 264.17 79.7191 261.816 73.6645C255.426 71.9827 261.984 75.1782 253.072 70.469C250.045 68.7872 247.859 68.4508 244.16 67.4417C245.841 65.7599 246.85 65.9281 248.364 63.2371C252.736 54.3234 244.16 48.6051 242.815 45.5778C240.46 40.3641 242.142 32.6276 231.716 31.4503C230.035 31.2822 229.194 31.6185 228.017 31.4503C224.822 31.4503 220.787 24.723 212.043 28.423C204.139 31.6185 207.502 37.505 207.502 40.0277C207.502 43.055 204.139 43.7278 203.971 53.3143C203.971 57.8552 202.626 59.0325 200.44 62.228C198.927 64.078 198.927 64.5826 198.086 65.7599ZM211.202 43.5596C224.654 44.9051 222.132 41.7096 228.185 42.5505C228.69 44.7369 229.026 47.4278 230.203 49.1097C231.716 48.6051 232.725 47.0914 234.911 48.2687C236.425 51.1279 235.584 51.8006 234.239 53.8188C232.557 56.6779 232.557 64.2462 233.734 66.4326C234.575 67.9463 236.425 67.7781 238.274 68.619C236.593 73.6645 222.132 75.3464 217.928 72.1509L218.937 65.5917C221.627 65.5917 223.813 66.2644 225.159 63.9098L223.141 63.5735C219.441 63.7417 215.069 64.2462 212.715 59.5371C210.697 55.1643 210.866 48.9415 211.202 43.5596ZM229.531 88.2965C229.867 84.0919 234.911 84.0919 242.983 81.7373C247.859 80.3919 253.408 78.0373 258.285 77.1964C257.612 80.5601 255.258 80.2237 252.399 81.2328L229.531 88.2965ZM257.612 82.2419C258.285 83.4192 261.143 91.6602 261.311 93.0057C253.072 99.5648 252.567 94.3512 245.169 98.8921C242.983 97.0421 241.133 93.342 237.938 95.5284C235.584 100.238 239.956 103.769 241.301 106.629L233.902 105.283C232.053 102.424 229.699 94.5193 229.194 90.6511L257.612 82.2419ZM236.929 112.179C235.08 111.506 231.885 111.842 232.053 106.965C237.266 108.142 238.106 109.488 244.328 107.974C244.496 103.433 238.443 102.088 239.788 97.3785C241.638 97.5466 242.478 99.5649 243.824 101.247C248.868 107.301 256.267 107.974 253.745 115.374C252.399 118.906 251.39 117.729 249.373 119.242C247.859 120.42 247.187 121.597 244.664 122.774C239.956 125.129 234.407 122.102 233.23 118.57C234.071 118.906 235.416 119.579 236.425 119.747C238.106 120.083 238.274 119.747 238.947 119.242C238.274 117.224 239.283 118.57 236.929 117.561C234.575 116.551 232.389 115.542 231.885 112.515C233.734 113.356 236.593 114.87 238.779 114.197C238.443 111.506 239.452 113.02 236.929 112.179ZM247.018 100.742C249.373 98.5558 254.753 99.2285 257.612 98.2194C262.657 96.5375 262.657 93.5102 265.011 91.8284C267.701 97.0421 270.56 97.2103 275.604 106.629C280.481 115.711 274.932 118.738 269.719 122.27C263.161 126.642 262.825 132.361 257.444 134.883C249.541 138.415 243.824 132.529 242.815 126.306C244.496 125.129 254.585 121.092 256.099 115.374C257.108 111.842 255.09 107.806 253.408 106.292C251.054 103.769 248.532 103.097 247.018 100.742ZM68.1038 110.833V143.293L26.4018 143.461L26.2337 138.247C36.6592 136.061 33.9687 133.706 34.4732 131.52C34.8095 130.343 35.3139 131.352 34.9776 128.829C34.8095 127.82 33.9687 126.642 34.1369 125.97C34.1369 124.792 33.9687 126.306 34.6413 124.792C37.1636 119.579 31.2783 117.392 26.2337 118.065V111.506L68.1038 110.833ZM301.164 125.633C298.81 124.961 295.783 121.261 295.278 118.738C294.606 115.542 295.615 110.665 296.96 108.31L308.058 108.815C307.722 111.674 308.058 118.065 306.881 119.915C306.545 120.42 302.004 125.129 301.164 125.633ZM23.5432 123.952C23.8796 121.092 25.3929 120.083 28.756 120.251C31.6146 120.42 33.2961 121.429 32.7917 124.288C28.0834 122.942 28.756 122.942 23.5432 123.952ZM22.5343 130.174C22.5343 123.615 32.119 123.783 32.7917 130.174C23.7114 128.493 28.0834 130.006 22.5343 130.174ZM145.454 159.102C146.295 157.084 147.808 156.243 148.817 154.225C155.543 141.274 149.153 144.134 159.747 140.938C164.624 139.424 167.146 138.415 171.013 136.061C174.545 133.874 175.385 133.033 177.908 130.511C178.748 129.67 178.917 129.502 179.589 128.661C182.111 134.211 173.367 151.534 172.863 159.27L145.454 159.102ZM70.6261 147.497C69.9534 142.788 74.3254 140.77 76.6796 138.415C78.6974 136.565 82.3968 132.865 84.919 131.52C83.742 135.556 81.2197 137.574 78.0248 140.097C74.8299 142.956 73.6528 145.143 70.6261 147.497ZM32.119 133.706C30.4375 134.715 22.7025 138.247 23.0388 134.379C23.3751 130.679 31.1101 130.511 32.119 133.706ZM68.4401 147.665C67.0948 148.338 67.7675 148.17 65.9178 148.17L25.7292 148.002L26.0655 146.152L31.2783 145.815C36.6592 145.815 66.4222 144.806 68.6082 146.152L68.4401 147.665ZM41.8719 150.693L70.7942 150.525L70.6261 162.634C65.7496 165.493 56.5012 165.493 51.6248 162.802C48.4299 160.952 41.7038 154.897 41.8719 150.693Z" fill="black"/>
<path fill-rule="evenodd" clip-rule="evenodd" d="M201.281 147.666C199.599 154.057 196.909 159.607 195.564 166.502C194.386 172.725 193.882 182.143 192.537 187.693L193.546 188.702L192.2 190.048L191.528 197.616C191.36 196.775 190.687 193.58 189.846 192.571C187.324 194.084 188.501 197.448 189.51 199.298C191.528 202.494 191.36 198.962 190.855 204.68C191.36 206.362 191.528 205.353 190.687 206.698C191.36 211.407 190.351 217.294 190.855 222.339C191.696 232.598 194.723 247.399 197.413 256.985C198.086 259.34 199.263 261.863 199.431 264.217C201.449 262.703 202.121 262.199 205.653 262.872C208.175 263.376 209.52 264.217 209.856 266.74C210.697 272.29 208.848 275.822 203.299 275.654C203.971 282.549 214.06 295.836 216.246 300.208C220.282 299.872 228.858 300.881 232.053 299.368C233.062 295.331 232.389 277.504 232.389 271.617C223.309 273.972 220.45 258.667 231.548 259.676L232.221 264.049V227.553C227.176 232.767 220.282 229.403 220.618 222.507C221.123 215.612 228.185 215.444 232.221 219.817V195.598C235.416 198.794 242.814 210.735 246.682 215.444C248.027 216.957 249.036 218.639 250.213 220.153C255.93 227.553 254.921 227.048 252.735 239.662C250.718 251.267 242.478 292.304 244.16 299.199C246.682 299.872 254.081 299.704 257.276 299.704C260.47 299.704 260.639 299.368 261.816 297.517C262.993 295.836 263.833 294.995 264.338 293.145C261.311 293.481 257.78 292.304 256.603 290.286C254.921 287.426 255.594 284.063 257.276 282.213C261.311 277.504 268.878 279.185 268.542 287.09L271.4 283.726C272.746 279.185 283.003 270.608 289.056 245.717C291.579 234.953 288.552 219.648 285.021 209.221C284.516 207.539 284.012 206.025 283.339 204.175C282.835 202.157 282.498 200.644 281.321 199.13C281.321 209.221 272.914 206.866 271.232 205.016C266.86 200.307 270.223 190.384 279.64 194.757C278.463 191.393 276.277 188.534 275.772 184.666C274.259 183.489 271.905 176.93 270.56 174.407C268.542 170.875 266.692 168.52 264.842 165.157C262.488 160.952 256.267 148.843 253.408 146.656C252.231 151.702 241.133 151.029 242.983 142.116C243.487 139.761 244.496 139.929 245.841 138.079H231.884C232.893 141.779 234.407 145.143 230.035 147.834C225.999 150.357 223.645 147.666 220.955 146.152C220.618 141.275 220.282 142.116 222.132 138.247H210.529C211.874 141.106 213.724 144.806 210.529 148.002C209.52 149.011 206.998 149.516 205.316 149.684C202.962 149.684 203.299 148.843 201.281 147.666ZM215.237 155.738C216.414 155.402 217.76 156.579 219.105 157.42C222.468 159.775 220.955 167.679 215.406 167.511C206.998 167.175 207.166 157.42 215.237 155.738ZM238.442 155.234C241.805 153.72 245 156.579 245.673 159.102C247.859 168.52 235.584 169.361 234.07 162.466C233.062 158.093 235.416 156.748 238.442 155.234ZM227.176 172.893C236.593 170.539 238.106 184.666 229.699 185.339C225.999 185.675 222.3 183.152 221.795 179.957C221.459 178.107 222.3 176.425 223.141 175.08C224.654 172.893 224.654 173.566 227.176 172.893ZM254.921 172.893C262.152 169.866 268.374 181.807 259.966 185.339C251.727 188.702 247.523 175.921 254.921 172.893ZM197.918 174.743C204.644 171.716 211.706 180.461 203.635 185.843C197.413 189.88 190.351 178.107 197.918 174.743ZM212.379 195.43C218.937 192.234 225.495 202.83 217.591 207.539C209.856 211.912 204.476 199.298 212.379 195.43ZM247.018 196.775C254.921 194.253 258.789 206.53 251.222 209.053C246.682 210.566 240.628 207.203 243.487 199.634C244.328 196.943 244.496 197.448 247.018 196.775ZM199.935 213.93C203.803 213.257 205.989 215.107 206.493 219.144C207.839 228.394 194.555 228.058 193.714 219.985C193.209 215.276 195.9 214.603 199.935 213.93ZM261.479 217.63C272.073 213.089 273.586 235.962 260.807 230.076C258.453 228.898 258.453 229.235 257.612 226.544C257.107 224.862 257.107 222.844 257.78 220.994C258.957 218.303 259.125 218.639 261.479 217.63ZM276.781 234.449C280.817 232.262 284.18 235.289 285.357 238.485C287.039 243.194 285.021 245.044 281.994 246.558C273.586 250.931 270.223 237.98 276.781 234.449ZM210.529 236.467C216.751 233.776 221.459 241.176 218.432 245.885C213.724 253.453 207.67 247.399 206.998 245.212C206.493 243.699 206.662 240.503 207.166 239.326C207.502 237.98 208.175 237.476 210.529 236.467ZM262.656 252.276C270.223 249.585 274.427 261.358 267.197 263.713C257.948 266.908 254.921 255.135 262.656 252.276ZM217.423 280.699C225.495 278.008 227.513 291.799 219.946 293.145C215.237 293.986 213.22 291.463 212.547 287.595C211.37 280.867 217.087 280.699 217.423 280.699Z" fill="#FFED00"/>
<path fill-rule="evenodd" clip-rule="evenodd" d="M66.755 335.359C66.9231 335.191 67.7639 334.518 67.7639 334.35L69.1091 335.022L82.3932 334.854C84.5792 331.322 87.4378 315.513 89.1193 309.963C91.8098 300.377 92.9868 292.976 92.6505 282.381C92.4824 278.344 91.4735 271.281 92.4824 267.581C94.3321 260.853 96.1817 256.481 97.8633 249.08L102.403 229.739C103.58 246.726 104.589 264.385 104.926 281.708C105.094 290.454 104.926 300.377 105.262 309.122L107.28 334.854L120.228 335.191L120.396 333.004C124.6 332.331 121.909 333.004 123.927 335.359C123.422 329.472 125.608 317.195 126.113 310.636C126.954 301.386 127.122 293.145 127.458 284.063L130.821 232.262L131.662 198.457C127.626 197.112 83.0658 198.457 74.1537 198.121C74.6582 205.521 72.4722 215.612 71.9677 223.516C71.7996 225.535 72.1359 226.376 72.1359 227.553C72.1359 228.226 71.6314 230.076 71.6314 231.253L71.127 267.917C71.2951 273.131 69.4454 294.658 68.941 301.554C68.7728 304.749 68.1002 306.936 67.9321 309.795L66.9231 326.445C66.5868 329.304 66.5868 332.5 66.755 335.359Z" fill="#FFED00"/>
<path fill-rule="evenodd" clip-rule="evenodd" d="M114.68 92.3332C114.68 93.5105 114.68 94.6878 114.512 95.8651C113.671 102.592 108.29 97.3787 106.609 95.5287L103.918 96.0333C101.228 96.8742 99.5465 99.3969 96.0152 98.7242L95.8471 91.6605C87.9439 92.165 82.0586 95.0241 77.3503 101.415C74.3235 105.62 73.3146 104.947 73.4828 111.506C73.6509 115.711 73.1464 121.261 73.6509 125.297H80.0407C76.3414 122.943 73.1465 121.261 76.5095 116.215C79.3681 116.552 80.377 117.561 83.4038 118.065C85.9261 118.57 88.7847 118.738 90.9707 119.411C95.1745 120.588 100.892 123.447 99.3783 127.484C94.5019 125.802 99.7146 122.775 83.4038 120.42C80.5452 119.915 79.7044 118.906 77.3503 118.906C77.5184 122.606 78.6955 122.438 81.8904 123.615C90.4662 126.643 87.6076 133.538 84.0764 137.743C83.7401 138.247 83.5719 138.416 83.0675 138.92L82.0586 140.434C92.8203 139.761 90.1299 132.697 93.1566 130.847C96.1834 134.716 90.298 139.425 88.4484 141.275C93.6611 141.275 93.9974 139.257 95.1745 137.07C96.5197 134.884 95.0063 135.725 97.3605 135.557C98.8738 138.92 93.6611 143.293 89.121 143.293C80.377 143.293 82.2267 138.752 76.8458 144.807C75.3324 146.488 73.4828 146.825 73.1465 149.852C72.9783 152.375 73.1465 155.57 73.1465 158.093C73.1465 162.298 72.642 171.212 73.3146 174.912C76.1732 174.575 81.5541 171.38 84.2445 171.548C84.4127 175.416 77.8547 174.743 73.1465 177.434V195.43H133.345L136.876 164.821C134.186 167.343 127.628 167.511 123.088 166.839C116.866 165.83 110.981 161.289 106.441 157.42C104.927 156.075 104.087 154.898 102.741 152.879C97.8649 145.311 100.724 146.152 97.8649 141.107C98.7057 139.425 99.5465 138.92 100.555 136.902C100.219 135.22 99.3783 134.211 99.8828 132.193C100.387 130.175 101.228 129.334 102.405 128.661C102.573 125.802 102.405 125.297 105.096 124.961C111.317 124.12 117.707 126.306 121.07 126.475C121.238 123.447 122.415 115.374 126.283 114.533C127.796 117.561 123.256 117.561 123.424 126.979C126.787 129.502 136.54 131.856 134.522 136.397C132 136.229 133.009 135.893 131.327 134.211C129.478 132.529 124.769 130.343 122.247 129.502C117.539 127.652 111.822 126.811 106.104 126.979C105.264 127.82 105.096 125.802 105.6 128.325C107.45 128.829 107.954 129.334 108.627 130.679C110.14 133.706 108.29 139.088 102.741 138.247C102.237 140.434 101.06 141.275 100.051 142.452C102.237 143.798 101.396 143.629 102.405 146.32C104.423 152.375 111.317 158.766 116.025 160.952C118.548 162.13 121.07 163.811 124.265 164.148C131.832 164.989 137.885 162.298 141.921 158.43C160.922 139.929 146.966 110.497 130.15 97.2105C116.194 86.4468 123.592 94.1832 114.68 92.3332ZM129.141 179.957C126.955 181.134 123.76 178.443 118.884 176.425C116.025 175.248 108.963 173.062 110.813 171.212C111.99 170.034 119.22 173.902 120.734 174.575C122.415 175.416 123.929 176.089 125.61 176.93C127.628 177.771 129.646 177.771 129.141 179.957Z" fill="white"/>
<path fill-rule="evenodd" clip-rule="evenodd" d="M261.309 74.3374C263.663 80.3921 265.681 90.8195 270.557 95.0241C272.575 96.7059 271.23 95.1923 273.752 96.3695C293.594 105.788 306.205 110.497 329.747 102.256C341.349 98.2196 341.181 98.5559 349.925 91.8286C351.438 90.6513 351.27 90.1467 352.279 90.8195C353.793 92.6695 352.111 93.3422 350.43 94.5195C348.748 95.6968 348.244 96.2014 346.562 97.3786C344.208 99.0605 340.509 101.247 337.145 102.088L336.977 133.202C336.809 137.238 337.482 139.593 337.65 143.125L337.818 145.311C338.491 148.17 338.827 156.916 340.509 159.102H349.252L349.084 162.634L349.757 159.102C351.102 158.429 351.102 158.598 351.27 158.093C355.306 146.993 357.324 138.416 357.492 124.961C357.66 118.402 357.324 113.356 356.483 106.797C355.81 100.07 354.465 96.0332 353.288 90.3149C356.315 88.4649 361.191 85.1012 358.333 80.0557C356.315 76.3556 352.952 73.4965 349.084 71.6465C343.872 79.2148 322.012 83.2512 311.923 82.4103C304.86 81.9057 298.807 80.0557 293.762 76.8602C290.735 75.0102 283.168 67.9465 283.168 63.2373C286.363 63.2373 287.204 65.7601 288.549 67.9465C289.895 69.7965 291.24 71.6465 292.921 72.992C295.948 75.5147 300.993 77.8693 305.533 78.8784C309.568 69.9647 308.055 71.4783 304.524 65.9282C297.798 55.3327 303.851 47.5962 303.851 42.2143C294.435 51.6326 290.231 39.187 288.886 37.6733C281.487 39.187 270.389 48.2689 266.353 54.9963C261.981 62.9009 262.654 67.1055 261.309 74.3374Z" fill="#FFED00"/>
<path fill-rule="evenodd" clip-rule="evenodd" d="M192.704 187.693C194.049 182.311 194.554 172.725 195.731 166.502C197.076 159.607 199.766 154.057 201.448 147.666L203.466 139.425C201.448 137.743 196.572 136.061 195.058 130.174C193.713 124.961 196.403 120.42 198.085 116.552C201.616 108.311 198.758 106.124 197.581 102.929C196.572 100.406 195.226 90.483 199.262 89.4739C199.935 90.8194 198.926 95.3604 198.926 97.7149C199.094 101.92 199.43 101.751 200.944 104.779C205.988 114.533 192.536 123.952 198.758 132.865C201.448 136.565 204.979 138.584 210.528 138.584H222.131L231.716 138.415H245.672L249.035 137.406C245.168 135.725 245.336 136.229 243.318 133.202C241.805 131.015 240.796 128.997 240.46 125.802C236.592 125.465 234.238 124.12 232.388 121.933C230.875 120.252 231.379 119.915 231.043 117.392C230.707 114.365 229.53 116.383 229.53 112.683V107.974C229.698 105.451 230.707 105.451 230.202 103.265C229.025 98.2195 224.317 89.4739 227.848 84.5966C229.193 82.7466 233.902 82.0738 236.424 81.4011C241.132 80.0556 251.389 77.701 254.416 75.5146C251.894 72.9919 245.168 70.6373 240.796 69.7964C233.565 78.542 224.821 76.3556 217.086 74.8419C216.75 79.0465 215.405 87.2875 213.555 90.8194C203.466 91.9967 202.793 80.2238 201.28 78.2056L198.421 73.8328C197.917 73.1601 198.085 73.4964 197.581 72.9919C182.11 84.5966 183.624 117.897 181.942 134.547C181.438 139.593 179.42 145.311 177.907 149.684C174.375 159.775 173.03 170.875 180.261 180.293C183.456 183.993 185.978 186.348 192.704 187.693Z" fill="white"/>
<path fill-rule="evenodd" clip-rule="evenodd" d="M166.472 63.4054C164.286 68.1145 165.295 75.5146 167.649 79.5511C170.844 85.1011 171.685 88.4648 170.844 96.0331C170.339 101.247 168.153 107.806 165.967 112.011C163.613 116.72 157.728 120.924 153.86 120.252C151.674 119.915 146.125 113.861 149.152 106.965C152.347 99.565 154.533 97.0422 156.046 93.3421C160.25 83.9238 154.365 82.242 154.869 76.5237L160.082 61.0508C157.224 62.5645 158.569 64.7509 155.374 64.7509C154.365 62.9008 153.524 59.0326 152.515 56.8462C148.648 57.0144 144.276 59.369 141.249 61.219C136.877 63.7418 135.196 65.2554 132.169 68.2827C129.646 70.8055 127.46 74.5055 125.779 77.8692C123.593 82.0738 121.911 88.2966 120.734 89.3057C131.664 91.6603 146.798 109.488 150.666 121.933C153.02 129.334 153.86 131.52 153.356 140.602C162.268 138.92 178.074 131.52 180.092 122.943C180.933 119.074 180.429 113.188 180.933 108.815C182.11 100.742 183.624 91.6603 186.482 84.5966C188.332 80.2238 192.199 74.1692 195.731 71.4782C198.253 69.46 197.748 69.9646 198.085 65.9282C197.076 65.5918 192.536 61.219 188.836 58.8644C186.146 57.1826 179.924 54.1553 176.393 54.1553C173.534 56.8462 170.508 64.5827 167.145 64.919L166.472 63.4054Z" fill="#A5BECF"/>
<path fill-rule="evenodd" clip-rule="evenodd" d="M273.25 122.943C275.436 125.97 275.1 131.688 278.799 135.725C284.012 133.875 330.254 135.388 333.281 134.716C335.971 134.211 335.13 131.688 335.13 125.465C335.13 118.065 335.298 110.833 335.13 103.433C333.449 103.097 326.386 105.956 323.864 106.797C318.988 108.311 315.288 107.974 310.748 109.152C310.075 113.356 310.748 118.57 308.73 121.765C307.553 123.615 303.854 128.829 300.323 128.156C298.137 127.652 294.101 122.943 293.428 120.42C292.419 115.879 294.101 112.011 294.437 107.638C286.534 105.62 278.631 101.247 275.1 100.238C276.109 103.097 283.339 111.674 277.79 119.074C276.445 120.756 274.427 121.597 273.25 122.943Z" fill="#FFED00"/>
<path fill-rule="evenodd" clip-rule="evenodd" d="M347.066 65.9281C346.729 70.9737 347.738 71.1418 344.039 73.16C341.348 74.6737 340.34 75.5146 336.808 76.5237C336.808 73.4964 337.985 66.6009 335.799 64.7509C334.286 65.5918 334.622 63.5736 334.622 70.8055C334.622 72.9919 334.622 75.1783 334.622 77.3647C330.587 79.0465 325.542 79.551 320.834 80.0556C320.329 70.6373 323.02 69.2918 317.303 61.3872C313.435 56.0053 309.736 54.828 311.249 44.5688C311.585 41.3733 311.417 40.0278 308.727 39.3551C305.532 38.6823 304.691 39.8596 304.187 42.2142C304.187 47.7643 298.133 55.3325 304.859 65.9281C308.391 71.4782 309.736 69.9646 305.868 78.8783C301.328 77.8692 296.284 75.5146 293.257 72.9919C291.743 71.6464 290.23 69.9646 288.885 67.9464C287.371 65.76 286.531 63.2372 283.504 63.2372C283.504 67.9463 291.071 75.0101 294.098 76.8601C299.142 80.0556 305.027 81.9056 312.258 82.4102C322.347 83.2511 344.207 79.2147 349.42 71.6464C350.092 65.9281 349.083 58.8644 352.11 54.9962C352.11 57.5189 351.606 59.2008 352.447 61.3872C359.173 64.5827 360.854 51.2961 361.527 50.287C367.412 51.4643 360.35 58.3599 362.536 61.0508C364.89 60.0417 365.731 56.5098 365.899 53.4825L367.748 54.6598C367.917 56.8462 367.748 58.6962 366.908 60.3781C366.067 61.8917 364.722 62.7326 364.554 63.9099C364.554 63.9099 364.554 64.0781 364.554 64.2463C364.385 65.4236 365.899 65.76 368.085 63.069C369.262 61.5554 369.43 60.2099 370.271 59.2008C375.483 62.3963 367.748 71.8146 364.554 75.0101C363.377 76.1874 361.022 78.2056 360.686 79.551C362.872 80.7283 368.421 74.3373 369.766 72.4873C375.652 71.8146 386.75 74.8419 391.794 73.8328C393.308 71.4782 394.989 46.2506 395.326 40.3642C395.83 30.6095 398.016 29.264 394.148 25.3958C390.617 21.8639 386.75 22.873 378.678 22.0321C373.802 21.5276 359.173 19.3412 355.641 21.023C354.296 22.2003 353.119 49.2779 352.615 50.6234C350.261 55.3325 349.083 48.7734 347.066 65.9281ZM389.776 71.31L371.28 69.9646C371.784 67.61 373.298 65.5918 373.634 62.7326C373.97 58.528 371.784 58.6962 370.271 56.5098C369.598 55.5007 369.766 54.3234 368.926 53.1462C367.917 51.8007 367.244 52.137 365.899 50.9598C363.208 48.7734 364.217 47.0915 359.173 49.1097L361.022 26.4049C365.731 26.4049 391.29 28.2549 393.644 29.6004L389.776 71.31ZM306.373 43.7279C305.868 40.3642 307.55 40.7005 309.231 41.8778C309.063 44.2324 308.391 44.5688 306.373 43.7279ZM308.391 45.9142C308.559 57.3508 308.895 54.3234 314.612 62.2281C318.143 67.2736 320.666 74.1692 317.134 79.8874C313.94 80.5601 311.754 79.7192 308.727 79.551C312.763 67.9463 309.736 70.3009 306.205 62.5645C303.682 57.1826 303.85 53.9871 305.364 48.437C306.036 45.7461 305.7 46.0824 308.391 45.9142Z" fill="#161616"/>
<path fill-rule="evenodd" clip-rule="evenodd" d="M26.3984 111.506V118.065C31.2749 117.392 37.3284 119.579 34.8061 124.792C34.1335 126.138 34.4698 124.624 34.3016 125.97C34.3016 126.642 34.9742 127.651 35.1424 128.829C35.4787 131.351 34.9742 130.342 34.6379 131.52C34.1335 133.706 36.8239 136.061 26.3984 138.247L26.5666 143.461L68.2685 143.293V110.833L26.3984 111.506Z" fill="#FFED00"/>
<path fill-rule="evenodd" clip-rule="evenodd" d="M393.311 29.7687C390.789 28.4233 365.398 26.5732 360.69 26.5732L358.84 49.2781C363.884 47.2599 362.876 49.1099 365.566 51.1281C366.911 52.3054 367.584 51.8008 368.593 53.3145C369.433 54.4918 369.265 55.5009 369.938 56.6782C371.451 58.8646 373.805 58.6964 373.301 62.901C372.965 65.7601 371.451 67.7783 370.947 70.1329L389.444 71.4784L393.311 29.7687Z" fill="white"/>
<path fill-rule="evenodd" clip-rule="evenodd" d="M253.407 146.825C256.265 149.011 262.487 161.12 264.841 165.325C266.691 168.688 268.54 171.043 270.558 174.575C271.903 176.929 274.258 183.657 275.771 184.834L278.293 148.17C278.461 148.17 278.63 148.002 278.63 148.002L280.816 147.497C286.701 146.488 293.091 141.947 291.409 138.583C289.391 138.583 287.71 146.32 278.293 145.479L278.798 135.724C275.098 131.688 275.435 126.138 273.249 122.942C267.868 124.624 266.691 129.333 263.328 133.202C257.274 139.929 255.088 135.893 249.539 139.424C250.044 141.274 252.566 144.638 253.407 146.825Z" fill="white"/>
<path fill-rule="evenodd" clip-rule="evenodd" d="M311.249 44.4004C309.736 54.6596 313.435 55.8369 317.303 61.2188C323.02 69.1234 320.329 70.4689 320.834 79.8872C325.542 79.5508 330.587 78.8781 334.622 77.1963C334.622 75.0099 334.622 72.8235 334.622 70.6371C334.622 63.4052 334.286 65.4234 335.799 64.5825C337.985 66.4325 336.808 73.328 336.808 76.3554C340.171 75.3462 341.349 74.5053 344.039 72.9917C347.906 70.8053 346.898 70.6371 347.066 65.7598C346.225 64.5825 345.552 62.9006 344.88 61.5552L342.526 56.6778C340.508 53.3141 338.658 51.1277 336.136 48.605C332.941 45.2413 323.524 39.3549 317.303 38.6821C315.789 42.3822 316.294 44.5686 311.249 44.4004Z" fill="#FFED00"/>
<path fill-rule="evenodd" clip-rule="evenodd" d="M247.016 100.742C248.53 103.265 251.052 103.938 253.406 105.956C255.088 107.47 257.106 111.506 256.097 115.038C254.583 120.756 244.494 124.793 242.812 125.97C243.821 132.193 249.539 138.247 257.442 134.547C262.823 132.193 263.159 126.306 269.717 121.933C274.93 118.402 280.479 115.374 275.602 106.292C270.558 96.8741 267.699 96.8741 265.009 91.4922C262.655 93.174 262.655 96.2013 257.61 97.8832C254.751 99.0605 249.37 98.3877 247.016 100.742ZM262.991 120.588C261.646 122.774 261.141 121.093 261.141 121.093C261.141 120.924 260.973 120.756 260.973 120.756L260.805 118.906C260.805 118.402 260.973 117.056 260.973 116.552C261.477 109.992 258.787 105.956 258.955 104.274C264 102.761 264 118.906 262.991 120.588Z" fill="white"/>
<path fill-rule="evenodd" clip-rule="evenodd" d="M294.942 37.1687C295.783 35.8232 295.615 35.8232 295.11 32.1231C294.942 30.2731 294.942 28.2549 294.606 26.4049C293.933 22.3685 291.411 21.1912 292.756 17.323C300.323 15.6411 296.792 33.6368 304.19 36.6641C308.394 38.346 317.979 37.3369 320.165 33.3004C322.183 29.4322 319.66 27.7504 319.324 24.7231C317.643 6.55918 322.687 12.782 322.687 6.72736C322.687 4.2046 320.333 1.85003 317.979 1.17729C315.457 0.504556 312.262 1.85003 308.226 1.17729C303.518 0.336372 297.969 -1.85002 292.588 4.2046C284.348 13.2865 292.42 21.8639 292.756 28.4231L293.429 35.655C294.101 38.1778 293.092 36.6641 294.942 37.1687ZM301.164 8.57739C304.359 8.4092 306.376 11.2683 317.474 11.9411L317.643 24.2185C314.111 23.5458 313.943 23.5458 310.412 24.7231C308.394 25.3958 304.022 26.2367 302.341 24.5549C299.818 21.8639 300.491 12.1093 301.164 8.57739Z" fill="black"/>
<path fill-rule="evenodd" clip-rule="evenodd" d="M148.645 28.255C148.477 34.4778 146.123 30.105 145.45 34.4778C144.946 37.8415 146.459 39.3551 148.645 40.7006C149.486 45.9143 148.982 54.8281 160.08 54.9963C162.938 54.9963 165.292 54.8281 164.956 51.8008C161.593 51.2962 158.566 53.819 154.194 50.7916C151.84 49.1098 150.999 45.2416 150.999 41.3733C152.513 40.1961 152.681 40.8688 153.858 39.187C155.54 37.0006 154.026 36.496 156.044 35.6551C158.23 37.1687 157.221 40.8688 161.761 41.037C165.965 41.2052 166.133 38.6824 166.974 36.496C166.974 36.3278 167.142 36.1596 167.142 36.1596L167.478 35.3187C169.664 36.8324 167.478 37.0006 170.001 38.5142C172.859 37.3369 171.346 35.8233 173.364 35.1505C178.24 33.4687 173.7 42.887 173.532 44.9052L172.691 52.6417C172.859 55.3326 172.187 53.9871 173.7 54.9963C176.054 53.1462 175.213 47.0916 175.55 44.0643C176.054 40.7006 178.24 38.8506 178.913 34.646C180.258 26.9095 176.054 20.5185 170.505 18.5003C166.47 16.9867 163.106 18.164 159.575 17.1548C155.876 15.9776 154.194 13.2866 150.327 13.4548C146.627 13.623 144.105 16.3139 144.105 20.1822C143.937 24.5549 146.627 26.0686 148.645 28.255ZM150.663 29.2641C151.336 28.7595 150.663 29.0959 151.84 28.9277C152.008 28.9277 152.513 28.7595 152.681 28.7595C153.185 28.7595 154.026 28.7595 154.699 28.5914L164.956 26.405L167.142 33.3005C164.452 32.6278 166.301 30.6096 161.425 31.1141C158.566 31.2823 158.398 32.4596 156.717 33.8051C153.185 33.8051 154.867 33.8051 152.849 32.1232C150.831 30.6096 150.663 31.955 150.663 29.2641ZM147.636 33.8051C149.654 32.6278 152.177 31.955 153.017 34.646C153.858 37.6733 152.681 38.6824 150.159 39.187C147.805 38.1778 146.964 37.0006 147.636 33.8051ZM163.275 39.187C156.885 39.8597 157.726 33.9732 160.584 32.9641C165.629 31.4505 165.124 36.3278 163.275 39.187Z" fill="black"/>
<path fill-rule="evenodd" clip-rule="evenodd" d="M89.4576 65.0871C89.7939 70.4689 89.6257 79.0463 91.9798 83.2509C93.8295 86.7828 101.733 89.6419 107.114 87.6237C106.777 84.0918 105.768 86.2782 99.883 85.4373C91.3072 84.26 92.3161 75.0099 91.8117 64.9189C93.9977 62.9007 97.8652 63.237 100.724 62.5643C103.751 61.8916 106.441 60.3779 109.972 61.0506C110.813 63.4052 111.486 65.5916 112.158 67.6098C113.84 72.1508 113.84 69.2916 117.203 71.1417C118.212 77.869 114.008 69.7962 114.176 84.5964C114.176 86.951 114.008 87.9601 115.858 88.801C117.875 85.7737 115.017 80.0554 117.539 77.0281C120.734 72.9917 120.902 71.478 116.698 67.9462C118.884 58.3597 120.23 55.5006 112.831 54.3233C109.468 53.8187 103.414 46.5868 98.0333 48.4368C93.4932 49.9505 97.3607 51.1278 89.4576 50.2869C83.9085 49.7823 78.5276 50.6232 81.3862 56.846C81.5544 57.3506 82.8996 59.8733 83.0677 60.3779C84.2448 61.8916 87.9442 64.0779 89.4576 65.0871Z" fill="black"/>
<path fill-rule="evenodd" clip-rule="evenodd" d="M211.2 43.5595C210.863 48.9414 210.695 55.1642 212.881 59.537C215.235 64.2462 219.607 63.7416 223.307 63.5734L225.324 63.9098C223.979 66.2644 221.793 65.5916 219.103 65.5916L218.094 72.1508C222.298 75.3463 236.591 73.8326 238.44 68.6189C236.591 67.778 234.741 67.9462 233.9 66.4325C232.723 64.2462 232.723 56.6779 234.405 53.8187C235.582 51.8005 236.591 51.1278 235.077 48.2687C232.891 47.0914 231.882 48.605 230.369 49.1096C229.192 47.4278 228.856 44.7368 228.351 42.5504C222.13 41.7095 224.82 44.905 211.2 43.5595ZM213.217 47.7641C215.572 46.9232 216.749 50.4551 213.217 50.4551C211.536 47.7641 213.217 47.9323 213.217 47.7641ZM222.97 47.9323C223.979 47.9323 223.643 47.9323 224.315 48.2687C224.82 52.4733 220.616 51.8005 221.793 48.4369C222.802 47.7641 220.616 48.1005 222.97 47.9323Z" fill="white"/>
<path fill-rule="evenodd" clip-rule="evenodd" d="M145.453 159.102L172.862 159.27C173.366 151.702 182.11 134.379 179.588 128.661C178.916 129.333 178.747 129.67 177.907 130.511C175.384 133.033 174.712 133.874 171.012 136.061C167.145 138.415 164.623 139.424 159.746 140.938C149.152 144.134 155.542 141.274 148.816 154.225C147.807 156.243 146.294 157.252 145.453 159.102Z" fill="#A5BECF"/>
<path fill-rule="evenodd" clip-rule="evenodd" d="M163.949 63.7418C160.754 63.2373 161.09 63.7418 160.418 66.4328C159.577 69.4601 157.055 74.001 156.887 76.8602C156.718 81.233 161.931 83.083 158.4 92.3331C156.214 98.3877 149.32 106.797 150.161 111.674C152.347 125.129 166.808 115.374 168.825 95.6968C170.675 78.2057 161.427 84.933 163.949 63.7418Z" fill="#FFED00"/>
<path fill-rule="evenodd" clip-rule="evenodd" d="M229.191 90.6514C229.696 94.5196 232.05 102.592 233.9 105.283L241.298 106.629C240.121 103.77 235.581 100.238 237.935 95.5287C241.298 93.3423 242.98 97.0424 245.166 98.8924C252.565 94.5196 253.069 99.5651 261.309 93.006C261.14 91.6605 258.45 83.4195 257.609 82.2422L229.191 90.6514Z" fill="#A5BECF"/>
<path fill-rule="evenodd" clip-rule="evenodd" d="M120.228 335.191L122.077 340.405C117.874 339.395 112.156 338.723 108.289 340.405C107.953 342.255 108.457 345.786 108.625 347.973C108.962 350.327 108.121 349.15 109.466 350.159C110.811 351.336 142.424 351 144.778 350.327C145.283 342.423 136.37 344.777 124.936 340.909C125.945 338.891 124.432 337.209 123.759 335.191C121.909 333.004 124.432 332.332 120.228 332.836V335.191Z" fill="black"/>
<path fill-rule="evenodd" clip-rule="evenodd" d="M185.64 296.172C183.286 297.685 176.56 299.367 173.365 300.376C166.135 302.563 162.94 307.776 166.639 308.617L172.693 308.786C175.383 308.786 178.242 308.786 180.932 308.786C184.631 308.786 194.384 309.122 197.243 308.449C198.42 305.926 197.579 298.19 196.402 295.667L187.322 295.499C187.154 290.79 186.649 290.79 185.136 290.117C184.463 291.126 184.8 290.117 184.631 291.463C184.631 292.976 185.136 295.163 185.64 296.172Z" fill="black"/>
<path fill-rule="evenodd" clip-rule="evenodd" d="M160.755 307.945C162.436 306.431 161.932 304.077 161.595 301.722C161.259 299.704 160.923 296.845 160.418 295.163C152.347 294.322 150.497 295.836 144.276 297.854C139.399 299.367 133.177 300.545 130.487 303.74C125.106 310.131 134.355 308.281 142.09 308.449C145.453 308.449 158.905 309.29 160.755 307.945Z" fill="black"/>
<path fill-rule="evenodd" clip-rule="evenodd" d="M70.7926 150.524L41.8703 150.693C41.7021 154.897 48.4282 160.952 51.455 162.634C56.3314 165.325 65.5798 165.325 70.4563 162.465L70.7926 150.524Z" fill="white"/>
<path fill-rule="evenodd" clip-rule="evenodd" d="M66.7554 335.359L65.242 340.572C59.3566 342.759 51.9579 342.927 47.5859 345.786C47.4178 348.141 47.5859 348.309 48.4267 349.991C51.7898 350.495 80.2076 350.495 81.721 349.654C82.898 348.813 84.0751 340.572 80.3758 338.722C77.5172 337.377 72.1363 339.563 69.614 340.068C69.2777 340.068 67.9324 340.236 67.5961 340.236C68.2688 338.554 69.1095 337.041 69.1095 335.022L67.7643 334.35C67.7643 334.518 66.9235 335.191 66.7554 335.359Z" fill="black"/>
<path fill-rule="evenodd" clip-rule="evenodd" d="M244.326 107.974C237.937 109.488 237.264 108.142 232.051 106.965C231.883 111.674 235.246 111.506 236.928 112.179C239.45 113.02 238.441 111.506 238.609 114.365C236.423 115.206 233.565 113.524 231.715 112.683C232.219 115.711 234.237 116.72 236.759 117.729C239.282 118.738 238.105 117.393 238.777 119.411C238.273 119.747 238.105 120.084 236.255 119.915C235.414 119.747 234.069 119.074 233.06 118.738C234.405 122.27 239.786 125.129 244.494 122.943C247.017 121.765 247.689 120.588 249.203 119.411C251.221 117.897 252.23 119.074 253.575 115.543C256.265 108.142 248.698 107.47 243.654 101.415C242.308 99.9015 241.636 97.7151 239.618 97.5469C238.441 102.088 244.494 103.433 244.326 107.974Z" fill="white"/>
<path fill-rule="evenodd" clip-rule="evenodd" d="M294.098 289.445C293.425 290.454 294.939 289.781 292.585 290.622C291.744 290.958 290.903 290.79 290.062 290.79C284.513 290.117 287.372 288.772 275.097 289.276C274.76 293.649 274.088 294.826 274.76 299.367C277.451 298.358 306.205 298.358 311.081 299.031C311.081 293.817 308.223 293.986 304.187 292.472C302.337 291.799 300.824 291.295 299.143 290.79C296.116 289.949 296.284 290.454 295.107 288.099C294.771 290.79 295.443 289.108 294.098 289.445Z" fill="#A5BECF"/>
<path fill-rule="evenodd" clip-rule="evenodd" d="M160.248 61.0508L155.035 76.5237C154.531 82.242 160.416 83.7556 156.212 93.3421C154.531 97.0422 152.345 99.5649 149.318 106.965C146.459 113.692 151.84 119.747 154.026 120.252C158.062 120.924 163.779 116.72 166.133 112.011C168.319 107.806 170.505 101.247 171.01 96.0331C171.85 88.4648 170.842 85.1011 167.815 79.551C165.461 75.5146 164.452 68.1145 166.638 63.4054C168.319 59.5371 166.974 56.8462 162.602 56.8462C160.92 58.3598 160.416 58.528 160.248 61.0508ZM162.77 61.5553C162.434 59.2008 162.434 59.0326 164.788 58.6962L165.292 62.0599L162.77 61.5553ZM163.947 63.7417C161.425 84.9329 170.673 78.0374 168.992 95.8649C166.974 115.542 152.513 125.297 150.327 111.842C149.654 106.965 156.38 98.5558 158.566 92.5012C161.929 83.2511 156.885 81.2329 157.053 77.0283C157.221 74.001 159.743 69.46 160.584 66.6009C161.089 63.9099 160.752 63.2372 163.947 63.7417Z" fill="black"/>
<path fill-rule="evenodd" clip-rule="evenodd" d="M323.358 298.527C324.367 297.013 337.988 297.686 340.51 297.686C345.218 297.686 354.13 297.35 358.334 297.854L358.502 299.704C359.511 298.191 359.511 294.322 354.971 292.472C337.988 286.081 347.068 294.154 334.961 289.613C332.102 288.604 326.889 288.604 323.526 288.94C322.686 291.631 322.013 296.004 323.358 298.527Z" fill="#A5BECF"/>
<path fill-rule="evenodd" clip-rule="evenodd" d="M203.968 320.895C206.659 321.568 213.385 321.231 216.916 321.4C221.624 321.4 222.97 319.55 226.669 318.036L227.342 319.55C227.51 320.222 227.173 319.886 227.678 320.895H230.705C232.218 318.877 233.731 314.84 233.059 311.477C232.554 309.459 231.714 309.29 231.545 306.936C231.041 302.395 232.386 302.227 230.368 301.218C228.351 302.563 229.528 306.936 229.696 308.954C227.342 310.804 221.624 313.159 218.261 313.663C218.766 311.14 219.775 309.963 220.279 307.44C220.784 304.749 221.12 301.89 219.102 301.049C217.925 302.899 218.934 310.636 214.898 313.831C211.367 317.027 203.464 315.681 203.968 320.895Z" fill="black"/>
<path fill-rule="evenodd" clip-rule="evenodd" d="M308.392 45.9141C305.702 46.0822 306.038 45.7459 305.365 48.4368C303.852 53.9869 303.684 57.1824 306.206 62.5643C309.737 70.3007 312.764 68.1144 308.728 79.5509C311.755 79.7191 313.941 80.3918 317.136 79.8872C320.835 74.169 318.313 67.2734 314.614 62.2279C309.065 54.3233 308.56 57.3506 308.392 45.9141Z" fill="white"/>
<path fill-rule="evenodd" clip-rule="evenodd" d="M201.278 147.666C203.295 148.843 202.791 149.684 205.145 149.684C206.827 149.684 209.349 149.011 210.358 148.002C213.553 144.807 211.703 141.107 210.358 138.247C204.809 138.247 201.278 136.229 198.587 132.529C192.365 123.784 205.818 114.197 200.773 104.442C199.26 101.415 198.923 101.583 198.755 97.3787C198.755 95.0241 199.764 90.6514 199.092 89.1377C195.056 90.1468 196.401 100.07 197.41 102.592C198.587 105.788 201.446 107.974 197.915 116.215C196.233 120.252 193.543 124.625 194.888 129.838C196.401 135.725 201.278 137.238 203.295 139.088L201.278 147.666Z" fill="black"/>
<path fill-rule="evenodd" clip-rule="evenodd" d="M245.166 320.895H247.856C249.369 319.213 248.024 320.054 248.865 318.036C252.733 318.541 253.405 321.4 258.618 321.4C261.813 321.4 269.716 321.736 271.902 320.895C272.238 317.868 269.884 317.363 267.194 316.522C264.671 315.85 261.981 314.504 259.627 314.168C253.741 313.159 250.547 311.813 245.67 309.122C245.838 306.6 247.352 303.572 246.175 300.881C243.989 301.218 244.493 302.227 244.157 305.086C243.989 309.963 240.626 314.841 245.166 320.895Z" fill="black"/>
<path fill-rule="evenodd" clip-rule="evenodd" d="M301.16 8.57726C300.488 12.2773 299.815 21.8638 302.337 24.5547C304.019 26.2366 308.391 25.3957 310.409 24.7229C313.94 23.5456 314.108 23.7138 317.639 24.2184L317.471 11.9409C306.373 11.2682 304.355 8.24089 301.16 8.57726ZM307.382 18.5001L305.868 18.8365C303.851 14.8001 309.063 14.9683 308.054 17.6592C308.054 17.8274 307.886 17.8274 307.886 17.9956L307.382 18.5001ZM313.099 15.641C314.781 15.1364 315.789 15.1364 316.126 16.4819C316.63 18.3319 315.117 18.3319 313.772 18.3319L313.099 15.641Z" fill="white"/>
<path fill-rule="evenodd" clip-rule="evenodd" d="M301.162 125.633C302.171 125.129 306.711 120.42 307.047 119.915C308.056 118.065 307.888 111.674 308.224 108.815L297.126 108.311C295.781 110.665 294.772 115.542 295.445 118.738C295.781 121.261 298.808 124.961 301.162 125.633Z" fill="white"/>
<path fill-rule="evenodd" clip-rule="evenodd" d="M261.479 217.63C259.125 218.639 258.957 218.303 257.948 220.994C257.275 222.844 257.107 224.694 257.78 226.544C258.621 229.235 258.452 229.067 260.975 230.076C273.586 235.962 272.073 212.921 261.479 217.63Z" fill="black"/>
<path fill-rule="evenodd" clip-rule="evenodd" d="M210.527 236.467C208.173 237.476 207.669 237.98 206.996 239.326C206.492 240.503 206.324 243.699 206.828 245.212C207.669 247.567 213.554 253.453 218.262 245.885C221.289 241.176 216.581 233.776 210.527 236.467Z" fill="black"/>
<path fill-rule="evenodd" clip-rule="evenodd" d="M254.919 172.893C247.352 175.92 251.724 188.702 259.963 185.339C268.371 181.807 262.317 169.866 254.919 172.893Z" fill="black"/>
<path fill-rule="evenodd" clip-rule="evenodd" d="M227.176 172.893C224.654 173.566 224.654 172.893 223.141 175.08C222.3 176.425 221.627 178.107 221.795 179.957C222.3 183.153 225.999 185.675 229.699 185.339C238.106 184.666 236.593 170.539 227.176 172.893Z" fill="black"/>
<path fill-rule="evenodd" clip-rule="evenodd" d="M264.338 293.313C266.692 291.967 267.028 289.949 268.542 287.258C268.878 279.354 261.479 277.672 257.276 282.381C255.594 284.231 254.921 287.763 256.603 290.454C257.78 292.472 261.311 293.649 264.338 293.313Z" fill="black"/>
<path fill-rule="evenodd" clip-rule="evenodd" d="M212.379 195.43C204.307 199.466 209.688 211.912 217.591 207.539C225.495 202.83 218.937 192.234 212.379 195.43Z" fill="black"/>
<path fill-rule="evenodd" clip-rule="evenodd" d="M276.781 234.448C270.055 237.98 273.586 250.93 281.994 246.558C285.021 244.876 287.039 243.194 285.357 238.485C284.18 235.458 280.817 232.43 276.781 234.448Z" fill="black"/>
<path fill-rule="evenodd" clip-rule="evenodd" d="M247.016 196.775C244.661 197.448 244.493 196.943 243.484 199.634C240.626 207.203 246.679 210.566 251.219 209.053C258.786 206.53 254.751 194.421 247.016 196.775Z" fill="black"/>
<path fill-rule="evenodd" clip-rule="evenodd" d="M217.423 280.699C217.086 280.867 211.369 281.036 212.546 287.595C213.219 291.295 215.237 293.986 219.945 293.145C227.512 291.799 225.494 278.008 217.423 280.699Z" fill="black"/>
<path fill-rule="evenodd" clip-rule="evenodd" d="M199.935 213.93C195.899 214.603 193.209 215.276 193.713 219.985C194.554 228.058 207.838 228.394 206.493 219.144C205.988 215.108 203.802 213.258 199.935 213.93Z" fill="black"/>
<path fill-rule="evenodd" clip-rule="evenodd" d="M232.386 227.721V219.985C228.35 215.612 221.288 215.78 220.783 222.676C220.279 229.571 227.341 233.103 232.386 227.721Z" fill="black"/>
<path fill-rule="evenodd" clip-rule="evenodd" d="M262.655 252.276C254.92 255.135 257.947 266.908 267.195 263.712C274.426 261.358 270.222 249.585 262.655 252.276Z" fill="black"/>
<path fill-rule="evenodd" clip-rule="evenodd" d="M197.917 174.743C190.35 178.275 197.413 189.88 203.634 185.843C211.706 180.462 204.643 171.548 197.917 174.743Z" fill="black"/>
<path fill-rule="evenodd" clip-rule="evenodd" d="M274.594 299.199C274.762 301.722 274.594 301.722 277.284 301.722H293.427C297.126 301.722 300.657 301.554 304.357 301.722C307.888 301.722 313.101 302.899 311.083 298.695C306.206 298.19 277.284 298.19 274.594 299.199Z" fill="black"/>
<path fill-rule="evenodd" clip-rule="evenodd" d="M238.441 155.234C235.414 156.579 233.06 157.925 234.069 162.466C235.582 169.361 248.026 168.521 245.672 159.102C245.167 156.748 241.804 153.72 238.441 155.234Z" fill="black"/>
<path fill-rule="evenodd" clip-rule="evenodd" d="M358.335 299.704L358.167 297.854C353.963 297.349 345.051 297.686 340.343 297.686C337.82 297.686 324.2 297.013 323.191 298.527C323.023 301.554 324.704 301.049 329.917 301.049H354.299C356.99 301.049 357.494 301.554 358.335 299.704Z" fill="black"/>
<path fill-rule="evenodd" clip-rule="evenodd" d="M102.406 128.66L105.601 128.492C105.097 125.969 105.433 127.988 106.106 127.147C111.823 126.979 117.708 127.82 122.248 129.67C124.771 130.679 129.479 132.697 131.329 134.379C133.01 135.892 132.001 136.229 134.523 136.565C136.541 132.024 126.788 129.67 123.425 127.147C123.257 117.728 127.797 117.728 126.284 114.701C122.416 115.374 121.239 123.447 121.071 126.642C117.708 126.474 111.318 124.119 105.097 125.129C102.406 125.297 102.406 125.801 102.406 128.66Z" fill="black"/>
<path fill-rule="evenodd" clip-rule="evenodd" d="M231.884 138.247L222.299 138.415C220.45 142.283 220.618 141.443 221.122 146.32C223.813 147.834 226.167 150.525 230.203 148.002C234.406 145.479 232.893 141.947 231.884 138.247Z" fill="black"/>
<path fill-rule="evenodd" clip-rule="evenodd" d="M25.8949 146.32L25.5586 148.17L65.7471 148.338C67.765 148.17 67.0923 148.507 68.2694 147.834V146.32C66.0834 144.975 36.4885 145.984 30.9395 145.984L25.8949 146.32Z" fill="#A5BECF"/>
<path fill-rule="evenodd" clip-rule="evenodd" d="M215.235 155.738C207.332 157.42 207.164 167.175 215.403 167.511C220.952 167.679 222.466 159.775 219.103 157.42C217.757 156.579 216.412 155.57 215.235 155.738Z" fill="black"/>
<path fill-rule="evenodd" clip-rule="evenodd" d="M199.43 264.217C200.943 268.253 201.952 272.122 203.465 275.654C208.846 275.822 210.864 272.29 210.023 266.74C209.687 264.217 208.342 263.376 205.819 262.872C202.12 262.367 201.448 262.872 199.43 264.217Z" fill="black"/>
<path fill-rule="evenodd" clip-rule="evenodd" d="M348.916 162.634L349.084 159.102H340.34C340.676 161.793 340.844 163.811 341.012 166.502L342.358 173.566C343.03 171.548 343.535 170.37 343.871 168.016C344.88 162.634 344.544 163.643 345.889 163.138C346.393 164.988 345.721 169.025 345.216 171.379C344.207 175.752 342.358 174.407 341.853 177.266C346.73 175.752 348.748 168.689 348.916 162.634Z" fill="white"/>
<path fill-rule="evenodd" clip-rule="evenodd" d="M232.389 271.785V264.217L231.716 259.844C220.45 258.835 223.141 274.14 232.389 271.785Z" fill="black"/>
<path fill-rule="evenodd" clip-rule="evenodd" d="M229.527 88.2964L252.228 81.2327C255.255 80.2236 257.441 80.56 258.113 77.1963C253.237 78.0372 247.688 80.3918 242.811 81.7373C234.908 83.9236 229.864 83.9237 229.527 88.2964Z" fill="#A5BECF"/>
<path fill-rule="evenodd" clip-rule="evenodd" d="M106.61 91.3238C107.282 92.8374 106.946 94.0147 106.441 95.5284C108.123 97.5466 113.504 102.592 114.345 95.8648C114.513 94.6875 114.513 93.5102 114.513 92.3329V90.9874C114.008 87.6237 113.168 87.4556 108.627 89.8101L106.61 91.3238Z" fill="#FFED00"/>
<path fill-rule="evenodd" clip-rule="evenodd" d="M150.664 29.2639C150.832 31.9549 150.832 30.6094 153.018 32.123C155.204 33.8049 153.355 33.6367 156.886 33.8049C158.399 32.4594 158.735 31.2821 161.594 31.1139C166.47 30.7776 164.621 32.6276 167.311 33.3003L165.125 26.4048L154.7 28.7594C154.027 28.7594 153.355 28.7594 152.682 28.9275C152.514 28.9275 152.009 28.9275 151.841 29.0957C150.496 29.0957 151.337 28.9275 150.664 29.2639Z" fill="white"/>
<path fill-rule="evenodd" clip-rule="evenodd" d="M96.0158 89.81C96.184 91.4919 96.5203 90.4828 95.8477 91.8283L96.0158 98.892C99.3789 99.5647 101.06 97.042 103.919 96.201C101.733 94.351 101.565 93.1737 103.583 90.9873C101.397 89.9782 99.7152 88.4646 96.8566 88.2964L96.0158 89.81Z" fill="#FFED00"/>
<path fill-rule="evenodd" clip-rule="evenodd" d="M100.386 136.902C102.068 136.397 102.909 136.229 102.74 138.416C108.289 139.256 110.139 133.875 108.626 130.847C107.953 129.502 107.449 128.829 105.599 128.493L102.404 128.661C101.227 129.165 100.386 130.175 99.8818 132.193C99.3774 134.043 100.218 135.052 100.386 136.902ZM104.59 136.902C103.749 135.052 103.245 133.37 104.086 131.688L107.785 131.015C107.281 134.547 106.44 131.688 106.272 134.211C106.104 136.061 107.449 136.566 104.59 136.902Z" fill="#FFED00"/>
<path fill-rule="evenodd" clip-rule="evenodd" d="M191.021 204.68C191.693 198.962 191.861 202.493 189.675 199.298C188.498 197.616 187.321 194.084 190.012 192.571C190.852 193.58 191.525 196.775 191.693 197.616L192.366 190.048L187.153 188.871C186.144 195.598 185.472 202.83 191.021 204.68Z" fill="white"/>
<path fill-rule="evenodd" clip-rule="evenodd" d="M118.886 176.425C123.594 178.443 126.957 181.302 129.143 179.957C129.647 177.77 127.63 177.77 125.612 176.929C123.93 176.088 122.417 175.248 120.735 174.575C119.222 173.902 111.991 170.034 110.814 171.211C109.133 172.893 116.195 175.079 118.886 176.425Z" fill="black"/>
<path fill-rule="evenodd" clip-rule="evenodd" d="M70.6242 147.497C73.651 145.143 74.828 142.956 78.0229 140.265C81.2178 137.574 83.7401 135.724 84.9172 131.688C82.3949 133.033 78.6955 136.734 76.6777 138.584C74.3236 140.77 69.9516 142.956 70.6242 147.497Z" fill="#A5BECF"/>
<path fill-rule="evenodd" clip-rule="evenodd" d="M261.143 120.924C261.143 120.924 261.647 122.606 262.992 120.42C264.001 118.906 264.001 102.592 258.957 103.938C258.789 105.62 261.479 109.488 260.975 116.215C260.975 116.888 260.806 118.065 260.806 118.57L260.975 120.42C260.975 120.756 261.143 120.924 261.143 120.924Z" fill="black"/>
<path fill-rule="evenodd" clip-rule="evenodd" d="M22.5312 130.174C28.0803 130.006 23.8765 128.493 32.7886 130.174C32.116 123.783 22.5312 123.615 22.5312 130.174Z" fill="white"/>
<path fill-rule="evenodd" clip-rule="evenodd" d="M163.275 39.1868C164.956 36.3277 165.629 31.4503 160.584 32.964C157.725 33.9731 156.885 40.0277 163.275 39.1868Z" fill="#DCDCDC"/>
<path fill-rule="evenodd" clip-rule="evenodd" d="M32.1182 133.706C31.1093 130.511 23.3743 130.679 23.038 134.379C22.7017 138.247 30.4367 134.715 32.1182 133.706Z" fill="white"/>
<path fill-rule="evenodd" clip-rule="evenodd" d="M147.638 33.8049C147.134 37.0004 147.806 38.1777 150.16 39.1868C152.514 38.6822 153.86 37.6731 153.019 34.6458C152.178 32.1231 149.656 32.6276 147.638 33.8049Z" fill="#C8C8C7"/>
<path fill-rule="evenodd" clip-rule="evenodd" d="M23.543 123.951C28.7557 122.942 28.0831 122.942 32.7914 124.456C33.2958 121.597 31.6143 120.42 28.7557 120.42C25.3927 120.083 23.8793 121.092 23.543 123.951Z" fill="white"/>
<path fill-rule="evenodd" clip-rule="evenodd" d="M13.1145 96.0332C11.7693 97.5469 14.9642 99.3969 15.9731 100.406C17.4865 101.752 19.168 104.611 20.5133 103.433C22.363 101.751 14.4598 95.8651 14.2916 95.8651C12.2738 95.0241 13.4509 95.6969 13.1145 96.0332Z" fill="#A5BECF"/>
<path fill-rule="evenodd" clip-rule="evenodd" d="M32.9598 98.7241C33.4642 96.7059 32.6235 95.3604 31.9509 93.174C31.1101 90.3149 31.9509 88.8012 29.0923 89.1376C28.5878 91.4921 29.5967 95.3604 30.4375 97.3786C31.2783 99.3968 30.1012 98.7241 32.9598 98.7241Z" fill="#A5BECF"/>
<path fill-rule="evenodd" clip-rule="evenodd" d="M4.70826 109.992C4.87641 111.674 3.19488 111.169 8.91208 112.683C10.7618 113.188 12.7796 113.692 14.7974 113.86C14.7974 110.328 14.1248 111.506 10.5936 110.497C8.57577 109.824 6.55794 108.983 4.70826 109.992Z" fill="#A5BECF"/>
<path fill-rule="evenodd" clip-rule="evenodd" d="M358.839 17.6592C358.502 16.1455 353.626 7.06358 352.113 9.92271C351.44 11.1 355.139 16.3137 355.98 16.9864C357.157 18.3319 356.484 17.8274 358.839 17.6592Z" fill="#A5BECF"/>
<path fill-rule="evenodd" clip-rule="evenodd" d="M258.453 312.991C258.957 310.804 257.107 310.131 256.771 306.936C256.435 303.572 258.789 302.9 257.276 300.881C253.072 303.236 254.417 312.822 258.453 312.991Z" fill="black"/>
<path fill-rule="evenodd" clip-rule="evenodd" d="M44.3916 96.7059C45.0642 94.8559 44.8961 89.1376 44.2235 87.624C43.719 87.4558 45.0642 86.9512 43.2145 87.4558C41.8693 87.7922 42.2056 89.474 42.0375 91.8286C42.0375 95.0241 41.1967 97.0423 44.3916 96.7059Z" fill="#A5BECF"/>
<path fill-rule="evenodd" clip-rule="evenodd" d="M341.016 19.5094C341.184 21.6958 342.529 21.864 344.547 23.0413C347.069 24.3868 347.574 25.7323 349.423 23.5459C349.087 21.864 342.361 18.164 341.016 19.5094Z" fill="#A5BECF"/>
<path fill-rule="evenodd" clip-rule="evenodd" d="M0.169935 122.943C1.51516 123.615 11.7725 124.288 8.91389 121.429C8.91389 121.261 -1.67975 119.074 0.169935 122.943Z" fill="#A5BECF"/>
<path fill-rule="evenodd" clip-rule="evenodd" d="M337.82 145.311L337.652 143.124C331.599 142.956 331.935 139.424 329.076 138.583C327.395 141.779 334.289 145.143 337.82 145.311Z" fill="#FBF4EB"/>
<path fill-rule="evenodd" clip-rule="evenodd" d="M377.504 16.3138H379.69C380.362 14.6319 380.194 9.92278 379.69 8.24094L377.672 8.07275L377.504 16.3138Z" fill="#A5BECF"/>
<path fill-rule="evenodd" clip-rule="evenodd" d="M103.918 96.0333L106.609 95.5288C107.113 94.1833 107.281 92.8378 106.777 91.3242L103.582 90.9878C101.564 93.006 101.732 94.1833 103.918 96.0333Z" fill="black"/>
<path fill-rule="evenodd" clip-rule="evenodd" d="M55.9951 97.0422L57.5085 97.2104C58.1811 96.0331 59.19 91.6604 57.5085 89.9785C54.1454 90.4831 55.4906 96.2013 55.9951 97.0422Z" fill="#A5BECF"/>
<path fill-rule="evenodd" clip-rule="evenodd" d="M370.776 16.1454L370.944 8.74533L368.927 8.57715C368.254 9.92262 368.254 11.7726 368.254 13.2863C368.254 15.6409 368.59 16.1454 370.776 16.1454Z" fill="#A5BECF"/>
<path fill-rule="evenodd" clip-rule="evenodd" d="M104.592 136.902C107.283 136.734 106.105 136.229 106.274 134.379C106.442 131.856 107.283 134.547 107.787 131.184L104.088 131.856C103.247 133.202 103.92 135.052 104.592 136.902Z" fill="black"/>
<path fill-rule="evenodd" clip-rule="evenodd" d="M306.374 43.7278C308.392 44.5687 309.064 44.2323 309.232 41.8777C307.719 40.7004 305.869 40.3641 306.374 43.7278Z" fill="white"/>
<path fill-rule="evenodd" clip-rule="evenodd" d="M221.795 48.2687C220.618 51.8006 224.822 52.3051 224.317 48.1005C223.645 47.9323 223.981 47.7642 222.972 47.7642C220.618 48.1005 222.804 47.7642 221.795 48.2687Z" fill="black"/>
<path fill-rule="evenodd" clip-rule="evenodd" d="M315.96 16.482C315.624 15.1365 314.615 15.1365 312.934 15.641L313.438 18.332C315.12 18.332 316.465 18.332 315.96 16.482Z" fill="black"/>
<path fill-rule="evenodd" clip-rule="evenodd" d="M105.094 69.46C104.422 70.1328 104.254 68.4509 104.59 70.6373C104.926 72.4873 106.44 71.9828 106.944 71.4782C108.458 70.1328 106.776 67.9464 105.094 69.46Z" fill="black"/>
<path fill-rule="evenodd" clip-rule="evenodd" d="M307.889 17.9956C307.889 17.9956 308.057 17.8274 308.057 17.6592C309.066 14.8001 303.853 14.8001 305.871 18.8365L307.384 18.5001L307.889 17.9956Z" fill="black"/>
<path fill-rule="evenodd" clip-rule="evenodd" d="M162.771 61.5554L165.293 62.06L164.789 58.6963C162.603 59.0327 162.435 59.2008 162.771 61.5554Z" fill="#FBF4EB"/>
<path fill-rule="evenodd" clip-rule="evenodd" d="M95.6781 72.3191L97.696 72.6555V69.46C96.5189 69.6281 95.8463 69.46 95.3418 70.3009C94.5011 71.8145 95.6781 72.3191 95.6781 72.3191Z" fill="black"/>
<path fill-rule="evenodd" clip-rule="evenodd" d="M213.219 47.7642C213.219 47.7642 211.706 47.7642 213.219 50.4552C216.751 50.4552 215.574 46.9233 213.219 47.7642Z" fill="black"/>
</g>
<defs>
<clipPath id="clip0">
<rect width="396" height="351" fill="white"/>
</clipPath>
</defs>
</svg>
