<svg width="24" height="24" viewBox="0 0 24 24" fill="none" xmlns="http://www.w3.org/2000/svg">
<path d="M12 2.81201C11.6117 2.81201 11.2969 3.12682 11.2969 3.51514C11.2969 3.90345 11.6117 4.21826 12 4.21826C14.3266 4.21826 16.2194 6.11079 16.2194 8.43701C16.2194 8.82532 16.5343 9.14014 16.9226 9.14014C17.3109 9.14014 17.6257 8.82532 17.6257 8.43701C17.6257 5.33539 15.102 2.81201 12 2.81201Z" fill="#2B2D33"/>
<path d="M10.1871 0.18884C7.01041 0.852637 4.43463 3.40376 3.75686 6.60021C3.18456 9.29937 3.8898 12.0092 5.69172 14.0349C6.57255 15.0251 7.07767 16.3321 7.07767 17.6245V19.0307C7.07767 19.9663 7.69019 20.7612 8.53516 21.0365C8.81303 22.6783 10.238 23.9994 11.9995 23.9994C13.7606 23.9994 15.186 22.6787 15.4639 21.0365C16.3089 20.7612 16.9214 19.9663 16.9214 19.0307V17.6244C16.9214 16.3295 17.4282 15.0382 18.3484 13.9884C19.6953 12.4518 20.437 10.4802 20.437 8.43696C20.437 3.11361 15.5644 -0.934566 10.1871 0.18884ZM11.9995 22.5932C11.0957 22.5932 10.3032 21.9713 10.0106 21.1354H13.9885C13.6959 21.9713 12.9034 22.5932 11.9995 22.5932ZM15.5152 19.0307C15.5152 19.4184 15.1998 19.7338 14.812 19.7338H9.18705C8.79935 19.7338 8.48392 19.4184 8.48392 19.0307V18.3276H15.5152V19.0307ZM17.2909 13.0615C16.3103 14.1803 15.7069 15.5293 15.5538 16.9213H8.44539C8.29249 15.5286 7.69071 14.1663 6.74252 13.1003C5.24074 11.412 4.65391 9.14914 5.13255 6.89192C5.69125 4.25689 7.83813 2.11634 10.4748 1.56542C14.9759 0.624778 19.0308 4.00503 19.0308 8.43696C19.0308 10.1391 18.4129 11.7814 17.2909 13.0615Z" fill="#2B2D33"/>
</svg>
