<svg width="24" height="24" viewBox="0 0 24 24" fill="none" xmlns="http://www.w3.org/2000/svg">
<g clip-path="url(#clip0)">
<path d="M22.5518 17.638C22.5518 16.5491 22.5518 10.3814 22.5518 10.3814L24 9.80257L11.9845 5L0 9.80257L5.67271 12.0758V15.4134C5.67271 16.4422 6.39402 17.3695 7.70375 18.0244C8.85898 18.602 10.3793 18.9201 11.9848 18.9201C13.5903 18.9201 15.1106 18.602 16.2658 18.0244C17.5756 17.3695 18.2969 16.4423 18.2969 15.4134V12.0821L21.149 10.9421C21.149 10.9421 21.149 16.5491 21.149 17.638C21.149 18.7269 22.5518 18.7269 22.5518 17.638ZM16.8942 15.4133C16.8942 16.4065 14.7947 17.5173 11.9848 17.5173C9.17497 17.5173 7.07544 16.4065 7.07544 15.4133V12.6379L11.9845 14.6051L16.8943 12.6427L16.8942 15.4133ZM11.9852 13.0943L3.77085 9.80257L11.9852 6.51083L20.2207 9.80257L11.9852 13.0943Z" fill="#2B2D33"/>
</g>
<defs>
<clipPath id="clip0">
<rect width="24" height="24" fill="white"/>
</clipPath>
</defs>
</svg>
