<svg width="28" height="28" viewBox="0 0 28 28" fill="none" xmlns="http://www.w3.org/2000/svg">
<path d="M0 5C0 4.17157 0.671573 3.5 1.5 3.5H26.5C27.3284 3.5 28 4.17157 28 5C28 5.82843 27.3284 6.5 26.5 6.5H1.5C0.671572 6.5 0 5.82843 0 5Z" fill="#2B2D33"/>
<path d="M0 14C0 13.1716 0.671573 12.5 1.5 12.5H26.5C27.3284 12.5 28 13.1716 28 14C28 14.8284 27.3284 15.5 26.5 15.5H1.5C0.671572 15.5 0 14.8284 0 14Z" fill="#2B2D33"/>
<path d="M0 23C0 22.1716 0.671573 21.5 1.5 21.5H26.5C27.3284 21.5 28 22.1716 28 23C28 23.8284 27.3284 24.5 26.5 24.5H1.5C0.671572 24.5 0 23.8284 0 23Z" fill="#2B2D33"/>
</svg>
