<svg width="24" height="24" viewBox="0 0 24 24" fill="none" xmlns="http://www.w3.org/2000/svg">
<g clip-path="url(#clip0)">
<path d="M13.4071 12.0067L23.6949 1.71892C24.092 1.33544 24.103 0.702709 23.7195 0.305643C23.336 -0.0914226 22.7033 -0.102433 22.3062 0.281046C22.2979 0.28907 22.2897 0.297269 22.2816 0.305643L11.9938 10.5935L1.70594 0.305585C1.30887 -0.0778942 0.67614 -0.0668841 0.292661 0.330182C-0.0814484 0.717526 -0.0814484 1.33157 0.292661 1.71892L10.5805 12.0067L0.292661 22.2945C-0.0975536 22.6848 -0.0975536 23.3175 0.292661 23.7078C0.682934 24.098 1.31566 24.098 1.70594 23.7078L11.9938 13.42L22.2816 23.7078C22.6787 24.0913 23.3114 24.0803 23.6949 23.6832C24.0689 23.2959 24.0689 22.6818 23.6949 22.2945L13.4071 12.0067Z" fill="white"/>
</g>
<defs>
<clipPath id="clip0">
<rect width="24" height="24" fill="white"/>
</clipPath>
</defs>
</svg>
