<svg width="16" height="17" viewBox="0 0 16 17" fill="none" xmlns="http://www.w3.org/2000/svg">
<g clip-path="url(#clip0)">
<path fill-rule="evenodd" clip-rule="evenodd" d="M16 8.5C16 12.9183 12.4183 16.5 8 16.5C3.58172 16.5 0 12.9183 0 8.5C0 4.08172 3.58172 0.5 8 0.5C12.4183 0.5 16 4.08172 16 8.5ZM10.4406 8.95312C10.4125 9.07188 10.3219 9.19375 10.1719 9.19375H8.70312V13.5H6.78438V9.19375H5.40625V7.26562H6.7875V5.90938C6.7875 4.34375 7.74688 3.5 9.125 3.5H10.5312V5.22188H9.57188C8.82188 5.22188 8.67188 5.58125 8.67188 6.09375V7.26875H10.3219C10.4719 7.26875 10.5906 7.41875 10.5906 7.56875L10.4406 8.95312Z" fill="#2B2D33"/>
</g>
<defs>
<clipPath id="clip0">
<rect width="16" height="16" fill="white" transform="translate(0 0.5)"/>
</clipPath>
</defs>
</svg>
