<svg width="426" height="270" viewBox="0 0 426 270" fill="none" xmlns="http://www.w3.org/2000/svg">
<g clip-path="url(#clip0)">
<path fill-rule="evenodd" clip-rule="evenodd" d="M308.824 134.306L308.695 139.858C310.116 137.534 311.279 132.628 316.059 129.142C320.193 126.172 326.006 125.914 331.174 126.301C331.174 130.046 328.461 132.886 327.428 135.985C325.49 141.794 321.872 149.799 320.064 155.222L315.413 170.457C315.154 171.361 315.025 172.393 314.638 173.297C314.379 174.072 313.992 174.717 313.733 175.621C312.312 180.915 312.054 181.044 310.374 185.433C309.082 188.532 307.92 192.147 306.886 195.375C306.24 197.57 305.594 197.828 304.948 200.152C304.431 202.089 304.044 203.121 303.01 204.542C283.502 204.8 264.124 204.413 245.133 204.8C243.841 203.509 243.453 202.476 242.42 200.668C241.644 199.377 240.611 197.957 239.577 196.795C238.156 195.117 236.348 191.889 235.185 190.985C234.151 190.081 234.281 190.727 233.635 189.307C236.994 189.307 239.707 189.436 243.195 189.436C245.908 189.436 250.559 189.178 253.013 189.565L272.134 189.436C275.493 189.436 278.981 189.307 282.34 189.307C285.44 189.307 289.316 189.823 290.479 187.499C291.9 184.659 295.517 175.621 296.163 172.781L282.34 167.229C280.143 166.454 277.56 165.163 275.622 164.389C274.459 163.872 273.296 163.743 272.004 163.227C262.444 159.482 255.856 160.128 247.846 158.191C246.166 157.804 236.218 158.062 233.505 157.933C232.084 156.255 227.692 145.926 227.304 143.473C226.4 142.182 226.271 141.02 225.625 139.341C225.108 137.792 224.204 136.63 223.558 135.339C222.266 132.757 221.361 129.271 219.294 127.592H176.144C174.982 129.787 175.24 130.046 176.79 133.531C177.566 135.339 178.341 137.663 179.374 139.341C181.7 142.827 183.25 146.701 185.317 150.057C186.351 151.865 187.384 153.543 188.418 155.351C189.451 157.417 190.356 158.191 191.389 160.644C194.49 168.133 195.006 165.163 203.145 165.809C201.337 168.133 200.174 168.133 198.365 172.781C197.59 174.846 196.815 180.011 196.428 182.593C194.49 195.891 191.518 210.093 189.451 223.392C188.934 226.748 188.418 230.364 187.901 233.72C187.513 235.657 187.384 237.206 187.255 239.143C186.997 241.983 186.867 241.596 188.805 243.016C188.159 244.566 187.513 247.793 187.513 249.601C188.805 249.859 188.676 250.117 189.451 249.213C190.097 247.664 190.226 245.082 190.356 243.274C201.466 245.598 199.011 248.955 203.921 236.432C205.342 232.946 206.634 229.847 207.796 226.232C208.83 223.004 212.318 215.516 213.998 211.384C214.643 209.835 214.902 207.64 215.677 206.091C216.065 206.349 215.806 206.091 216.194 206.478L217.615 208.286L226.142 220.035C227.95 221.455 226.787 221.713 228.596 223.263C231.051 225.457 234.281 229.718 235.314 230.622L237.252 232.558L237.381 232.687C240.74 236.173 241.386 237.465 245.649 240.821C249.525 243.92 248.233 246.373 255.339 241.983L260.377 238.627C260.506 235.657 257.406 229.331 255.856 226.49C255.21 225.328 254.434 224.037 253.788 222.746L246.425 207.124C251.205 207.382 256.114 206.866 260.765 207.124H297.068C299.264 207.124 301.589 206.737 304.302 206.737C304.69 205.704 305.853 204.8 306.628 202.476C307.403 200.281 307.79 199.248 308.566 197.441C309.082 196.15 309.987 193.826 310.374 192.405C310.891 190.469 311.537 189.049 312.183 187.241C313.346 184.142 315.025 180.527 315.671 177.041C315.929 175.363 317.221 172.781 317.738 170.457L317.997 169.424C317.997 169.295 317.997 169.295 317.997 169.166C317.997 169.037 317.997 169.037 318.126 168.907L329.882 135.468C331.045 133.144 333.629 128.367 333.499 125.268C330.657 123.074 320.451 123.332 314.121 128.367C311.537 130.304 311.666 129.658 308.824 134.306ZM218.648 130.046C219.165 131.466 219.94 132.628 220.586 134.177C222.783 139.6 223.428 140.116 225.883 147.088C228.079 153.285 232.601 161.806 233.247 163.743C227.95 163.743 213.352 164.001 208.959 163.614L195.006 164.001L190.485 155.48C189.58 154.06 188.934 152.64 188.159 151.349C185.705 147.604 183.508 143.086 181.183 138.825C180.408 137.405 177.436 131.337 177.178 130.175L218.648 130.046ZM245.908 163.743C243.195 164.001 240.611 163.872 238.285 163.872C236.606 163.872 236.477 164.001 235.702 162.839C235.185 162.065 234.281 160.903 234.151 160.128H246.812L245.908 163.743Z" fill="#2B2D33"/>
<path fill-rule="evenodd" clip-rule="evenodd" d="M227.174 143.602C227.432 146.055 231.954 156.513 233.375 158.062C236.088 158.191 246.036 157.933 247.715 158.321C255.725 160.128 262.314 159.483 271.874 163.356C273.166 163.872 274.329 164.001 275.491 164.518C277.429 165.292 280.142 166.584 282.209 167.358L296.033 172.91C298.1 173.039 298.875 172.91 300.684 172.264C303.526 171.102 304.818 163.098 305.593 159.87C305.981 158.321 306.497 157.029 306.756 155.609L308.435 145.668C308.823 143.215 308.564 142.311 308.694 139.987L308.823 134.435C307.531 125.914 305.076 116.489 300.425 109.388L295.387 103.191L289.315 97.8973C287.248 95.9607 281.822 93.5076 278.592 91.9583C276.654 91.0545 276.654 91.0545 274.329 90.409C269.936 89.3761 268.386 89.7634 264.768 91.3127C260.376 93.1203 259.342 95.186 257.146 97.51L253.916 102.933C253.529 103.707 253.141 103.836 252.883 104.482C252.237 105.773 253.012 105.257 252.108 106.677C248.103 113.003 250.687 109.775 249.395 112.358C245.519 119.975 246.94 119.846 244.615 127.463C244.227 128.625 243.84 130.82 243.452 131.853C242.418 134.694 241.385 137.147 239.447 138.954C234.925 143.086 228.724 142.569 227.174 143.602ZM250.299 157.675C250.945 156.642 253.4 156.771 256.5 155.738C260.247 154.576 263.993 152.769 266.836 150.316C268.257 149.025 269.419 147.863 270.84 146.701C271.874 145.797 272.262 145.668 272.908 144.635C273.554 143.731 274.07 143.473 274.716 142.569C280.659 135.597 280.788 128.625 282.08 126.56C284.147 126.56 283.76 127.334 282.209 132.111C279.755 139.987 277.688 140.891 274.458 145.539C272.132 148.766 266.448 153.156 262.96 155.222C260.764 156.513 256.242 158.062 253.4 158.45C250.041 158.837 250.557 158.062 250.299 157.675Z" fill="white"/>
<path fill-rule="evenodd" clip-rule="evenodd" d="M406.88 197.311C397.836 196.795 387.243 197.182 378.328 197.311L349.906 197.182C349.906 198.731 350.423 199.764 350.552 201.185C350.681 202.734 350.681 204.025 350.811 205.445L354.557 228.943C354.816 229.847 355.72 236.044 355.591 237.077C355.332 239.788 357.787 259.542 358.562 260.962C365.538 260.833 372.773 261.091 379.104 260.833H395.511C397.19 260.962 397.449 261.608 399.774 261.22C400.808 256.185 400.937 250.375 402.1 245.598L403.779 229.718C404.037 226.748 404.683 224.553 404.683 221.326C404.425 212.934 406.234 205.445 406.88 197.311Z" fill="white"/>
<path fill-rule="evenodd" clip-rule="evenodd" d="M308.695 139.858C308.565 142.182 308.953 143.086 308.436 145.539L306.757 155.48C306.498 156.9 305.982 158.321 305.594 159.741C304.819 163.098 303.527 171.102 300.685 172.135C299.005 172.781 298.23 172.91 296.034 172.781C295.517 175.492 291.771 184.659 290.349 187.499C289.187 189.823 285.311 189.307 282.21 189.307C278.722 189.307 275.363 189.436 272.004 189.436L253.142 189.565C250.688 189.178 246.037 189.436 243.324 189.436C239.836 189.436 237.123 189.307 233.764 189.307C234.41 190.727 234.28 190.211 235.314 190.985C236.477 191.889 238.415 195.117 239.706 196.795C240.611 197.957 241.774 199.506 242.549 200.668C243.711 202.476 243.97 203.38 245.262 204.8C264.253 204.413 283.761 204.929 303.139 204.542C304.173 203.121 304.561 202.089 305.077 200.152C305.723 197.828 306.369 197.57 307.015 195.375C308.049 192.018 309.211 188.532 310.503 185.433C312.183 181.044 312.441 180.915 313.862 175.621C314.121 174.717 314.508 174.072 314.767 173.297C315.025 172.393 315.283 171.361 315.542 170.457L320.193 155.222C321.872 149.799 325.619 141.795 327.557 135.985C328.59 132.757 331.432 130.046 331.303 126.301C326.135 125.914 320.322 126.301 316.188 129.142C311.278 132.628 310.245 137.534 308.695 139.858Z" fill="white"/>
<path fill-rule="evenodd" clip-rule="evenodd" d="M177.436 130.175C177.694 131.337 180.536 137.405 181.44 138.825C183.766 143.085 186.091 147.604 188.417 151.348C189.192 152.64 189.838 153.931 190.742 155.48L195.264 164.001L209.217 163.614C213.609 164.001 228.208 163.743 233.505 163.743C232.859 161.806 228.337 153.285 226.141 147.088C223.686 140.116 223.04 139.599 220.844 134.177C220.198 132.757 219.423 131.595 218.906 130.045L177.436 130.175ZM208.441 145.022C209.604 147.217 209.992 149.799 208.183 151.994C204.953 155.738 196.297 149.541 200.044 143.473C200.044 143.473 200.173 143.344 200.173 143.215C201.207 141.665 201.982 142.053 204.695 141.923C206.762 139.599 208.183 138.308 212.446 138.308C212.446 139.6 211.93 141.794 211.284 142.698C210.509 143.86 209.346 144.247 208.441 145.022Z" fill="white"/>
<path fill-rule="evenodd" clip-rule="evenodd" d="M377.423 161.548L375.744 185.692H369.543C369.543 183.626 367.734 177.3 367.088 175.621C366.571 173.685 365.925 171.49 365.15 169.682C364.375 167.875 363.342 166.067 362.696 164.13C358.561 151.22 346.159 135.339 345.384 133.532C343.704 133.661 344.092 133.532 343.704 134.435C345.384 136.114 349.13 141.924 350.293 143.86C351.198 145.41 352.231 147.734 353.135 149.025C354.298 150.703 355.073 151.994 355.978 153.931C358.561 159.353 358.561 158.45 360.758 164.905C362.179 169.295 363.858 171.361 365.021 176.525C365.538 178.203 367.346 184.401 367.088 185.821C363.858 186.208 359.078 185.821 355.719 185.821C341.637 185.95 343.704 184.788 343.446 191.243C343.317 192.922 343.188 195.633 343.446 196.924L345.513 197.312C347.322 197.312 347.58 196.924 348.097 198.215C348.226 198.344 348.355 199.119 348.355 199.248L348.872 205.833C349.13 211.514 350.81 216.807 351.327 221.842C351.973 226.878 352.36 233.72 353.394 238.627C354.427 243.145 355.202 258.897 356.882 262.899L391.247 263.028C394.477 262.899 398.482 263.416 402.099 263.157L405.587 238.756C405.846 235.915 405.716 233.591 406.104 230.493C406.362 227.652 407.008 225.07 407.008 222.101C407.008 214.741 407.654 212.288 408.688 205.833C409.075 203.122 408.817 199.894 409.592 197.182C411.013 197.182 412.563 197.441 413.855 196.924L414.114 187.112C413.726 184.917 414.243 186.596 413.597 185.821C412.693 185.434 388.275 185.563 385.304 185.692C386.467 181.818 387.5 180.656 388.146 178.333C388.921 175.879 390.343 173.039 391.118 170.715C391.893 168.391 393.056 166.584 394.089 164.389C398.223 155.093 406.879 144.764 413.726 137.534C415.406 135.856 416.827 134.823 418.377 132.886C420.444 130.304 421.736 130.691 423.028 128.496C422.382 127.98 423.803 128.367 422.124 127.98C421.219 127.722 421.736 127.851 419.927 129.013C414.372 132.628 400.936 149.025 396.544 155.609C392.797 161.419 392.28 164.518 389.309 169.424L383.495 184.53C382.72 185.95 382.462 185.563 378.328 185.563C378.199 183.626 378.844 181.689 378.974 179.753C379.103 177.429 379.361 175.75 379.49 173.685C379.749 171.619 379.62 169.553 379.749 167.487C379.878 165.292 380.266 163.485 380.266 161.29C380.266 158.708 381.041 155.48 381.17 152.511C381.687 141.278 380.653 136.114 379.878 125.656C378.715 110.55 378.199 110.163 375.227 97.1227C374.71 94.9279 375.227 94.9279 373.289 94.5405C372.902 95.5734 373.031 97.1227 373.418 98.5429C373.935 100.092 373.806 100.996 374.194 102.545C376.39 112.745 377.294 115.714 377.682 127.205C377.811 129.787 378.199 133.144 378.586 135.985C378.974 140.633 378.844 158.708 377.423 161.548ZM344.996 195.117L344.867 187.628L411.659 187.887L411.53 195.246C410.238 194.988 365.021 195.246 361.145 195.246C356.365 195.117 349.776 195.633 344.996 195.117ZM349.906 197.182L378.328 197.312C387.242 197.312 397.836 196.924 406.879 197.312C406.362 205.445 404.424 212.934 404.424 221.455C404.424 224.683 403.778 226.878 403.52 229.847L401.841 245.728C400.678 250.505 400.549 256.315 399.515 261.35C397.19 261.737 396.931 261.092 395.252 260.963H378.845C372.514 261.221 365.279 260.963 358.303 261.092C357.528 259.671 355.073 239.918 355.332 237.206C355.461 236.173 354.557 230.105 354.298 229.072L350.552 205.575C350.422 204.154 350.422 202.863 350.293 201.314C350.293 199.636 349.906 198.732 349.906 197.182Z" fill="#2B2D33"/>
<path fill-rule="evenodd" clip-rule="evenodd" d="M388.923 169.424C391.894 164.647 392.411 161.548 396.158 155.609C400.421 148.895 413.857 132.499 419.541 129.013C421.35 127.851 420.833 127.851 421.738 127.98C423.288 128.367 421.996 127.98 422.642 128.496C421.35 130.82 420.058 130.304 417.991 132.886C416.441 134.823 415.02 135.855 413.34 137.534C406.493 144.764 397.837 155.093 393.703 164.389C392.799 166.583 391.507 168.262 390.732 170.715C393.445 172.006 398.354 173.168 401.196 171.36C408.043 167.229 405.459 165.292 406.751 162.839C407.656 161.032 409.594 161.806 411.79 158.579C412.694 157.158 412.953 157.804 413.598 155.996C413.986 154.834 414.503 153.672 414.632 152.381C414.632 151.607 414.89 150.187 415.149 149.412C415.795 147.604 416.182 149.154 419.024 146.184C420.962 144.247 423.288 142.44 424.58 140.245C425.226 139.083 425.484 138.179 425.742 136.759C426.905 131.853 423.546 126.818 417.862 126.43C416.699 126.301 411.79 127.98 410.885 128.625C409.981 129.271 410.498 129.142 409.723 129.787C407.526 131.853 408.818 130.949 407.785 132.24C407.139 133.144 407.139 132.499 406.493 133.531C403.522 137.276 406.881 135.984 401.067 137.405C397.708 138.308 392.669 142.569 391.507 146.313C390.473 149.67 391.248 151.09 391.765 154.189C390.344 155.093 389.44 155.093 388.535 156.642C388.148 157.288 386.856 160.128 386.727 160.644C385.564 166.196 388.665 168.004 388.923 169.424Z" fill="white"/>
<path fill-rule="evenodd" clip-rule="evenodd" d="M242.936 66.0072C243.195 71.3007 242.032 82.4041 244.099 86.1482C247.071 91.5708 251.721 91.6999 257.664 90.7962C259.215 90.538 258.956 90.9253 259.731 90.0215C258.569 86.6647 249.913 92.991 245.779 84.728C244.358 81.8876 244.745 69.364 245.133 66.3945C246.554 66.2654 252.497 67.4274 253.013 71.8171C253.272 73.8828 253.013 76.3359 255.08 76.5941C258.181 77.1106 256.502 74.3993 258.052 72.85C259.215 71.8171 262.057 71.4298 263.09 72.9791C264.641 75.5613 261.411 79.0472 264.253 83.9534C265.545 86.2773 267.483 84.728 268.516 83.8243C269.033 84.4698 271.746 90.538 273.942 87.9558C273.684 85.89 268.646 84.2116 271.1 79.5637C272.65 76.5941 273.296 77.1106 275.105 71.0424C276.139 67.5565 275.105 63.8123 272.909 62.0048L272.392 61.6175C271.746 60.9719 272.134 62.0048 271.746 60.5846C270.842 57.7442 272.004 58.2606 269.421 56.4531C264.511 52.9671 259.99 57.0986 257.277 57.2277C252.367 57.8733 247.717 52.0634 242.549 54.7747C236.348 58.0024 238.415 64.0705 242.936 66.0072Z" fill="#2B2D33"/>
<path fill-rule="evenodd" clip-rule="evenodd" d="M377.424 161.548C378.845 158.708 378.845 140.632 378.457 136.114C378.199 133.273 377.682 129.916 377.553 127.334C377.165 115.843 376.261 112.745 374.065 102.674C373.677 101.125 373.806 100.221 373.289 98.6718C372.773 97.2516 372.643 95.7023 373.16 94.6694C372.514 94.7985 370.706 95.1859 370.06 95.4441C367.476 96.3479 365.538 100.092 364.634 102.545C361.791 111.195 368.639 114.94 367.605 118.038C364.504 127.076 365.021 126.043 366.959 134.564C367.734 137.921 367.993 137.921 369.414 140.245C366.83 146.184 365.538 152.381 370.447 157.675L371.61 158.708C372.514 159.741 371.868 160.128 373.806 160.773C374.969 161.032 376.261 161.161 377.424 161.548Z" fill="white"/>
<path fill-rule="evenodd" clip-rule="evenodd" d="M380.008 161.29C381.429 160.903 380.912 160.903 381.945 160.903C382.979 160.774 383.367 160.644 384.142 159.999C384.788 159.482 386.726 157.029 386.855 156.255C388.147 152.252 388.663 150.445 387.501 145.797C387.113 144.377 388.147 143.215 389.051 141.794L389.826 140.632C390.601 139.341 390.86 138.954 391.118 137.405C391.506 134.952 391.764 133.919 391.376 131.337C390.601 126.689 391.118 126.301 389.051 121.137C388.405 119.588 387.242 118.426 386.596 117.135C385.95 115.843 386.726 113.52 386.855 111.712C387.242 108.355 384.271 103.062 382.721 100.221C381.816 98.5428 382.204 99.5757 381.17 98.5428C380.008 97.1226 377.295 93.5076 373.806 94.1531L373.031 94.4113C374.969 94.7986 374.452 94.7986 374.969 96.9935C377.811 110.034 378.457 110.421 379.62 125.527C380.395 135.985 381.299 141.278 380.912 152.381C380.783 155.48 379.878 158.579 380.008 161.29Z" fill="white"/>
<path fill-rule="evenodd" clip-rule="evenodd" d="M344.996 195.117C349.647 195.633 356.365 195.246 361.274 195.246C365.15 195.246 410.367 194.859 411.659 195.246L411.788 187.887L344.996 187.628V195.117Z" fill="white"/>
<path fill-rule="evenodd" clip-rule="evenodd" d="M293.321 207.64C293.062 209.448 297.067 219.777 297.971 222.101C299.651 226.749 301.072 231.267 302.881 236.174L312.699 264.319L316.833 264.19C316.317 262.641 315.8 258.897 315.412 256.831C314.12 249.988 305.981 209.061 305.206 207.511C304.56 207.382 300.426 207.769 299.263 207.769C297.196 207.769 295.258 207.382 293.321 207.64Z" fill="white"/>
<path fill-rule="evenodd" clip-rule="evenodd" d="M226.269 220.035L217.743 208.286C216.58 212.546 215.676 217.84 214.901 222.359L209.087 250.246C208.829 251.408 208.699 252.699 208.441 253.732C208.053 255.54 206.116 262.641 206.762 264.19L210.379 264.319C212.963 256.96 215.676 249.601 218.13 241.983L224.848 222.488C225.236 221.584 225.494 220.68 226.269 220.035Z" fill="white"/>
<path fill-rule="evenodd" clip-rule="evenodd" d="M187.512 249.73C186.866 251.021 172.267 255.669 169.684 256.702C168.262 257.218 164.903 257.993 164.128 259.284C163.87 261.091 165.679 262.512 167.229 262.899C169.038 263.415 192.292 263.674 193.713 263.415C195.651 263.157 197.718 262.899 198.622 261.35C199.656 259.542 199.139 253.087 198.235 250.504C197.976 249.601 198.106 249.988 197.589 249.342L189.579 249.213C188.675 250.246 188.804 249.988 187.512 249.73Z" fill="#72A5AD"/>
<path fill-rule="evenodd" clip-rule="evenodd" d="M364.893 176.396C363.73 171.231 362.18 169.166 360.629 164.776C358.433 158.321 358.433 159.224 355.849 153.802C354.945 151.865 354.17 150.574 353.007 148.896C352.103 147.604 351.069 145.28 350.165 143.731C349.002 141.794 345.255 135.985 343.576 134.306C342.284 135.855 341.896 135.726 341.509 138.179C341.251 140.116 340.863 141.665 341.38 143.731C342.284 147.475 343.834 149.67 346.289 151.478C346.547 156.126 345.255 156.771 347.581 160.774C347.968 161.419 347.839 161.161 348.098 161.548C350.811 165.034 351.973 163.227 352.232 166.713C352.619 171.361 355.074 172.135 356.237 173.814C359.079 177.17 360.629 176.783 364.893 176.396Z" fill="white"/>
<path fill-rule="evenodd" clip-rule="evenodd" d="M255.983 248.439L254.95 249.472C254.046 251.408 247.844 259.026 245.907 260.963C244.873 261.995 240.48 266.902 240.48 267.934C240.997 269.226 240.997 269.871 242.418 270C246.294 270.258 248.361 269.484 251.591 267.418C252.754 266.643 253.141 266.514 254.175 265.869L259.342 263.028C268.386 257.735 273.424 256.185 266.836 248.439C264.51 245.728 265.027 245.469 262.96 244.437C262.055 244.824 261.926 245.082 261.151 245.728C260.505 246.244 260.118 246.373 259.601 246.631L255.983 248.439Z" fill="#72A5AD"/>
<path fill-rule="evenodd" clip-rule="evenodd" d="M345.385 133.402C346.16 135.339 358.691 151.09 362.696 164.001C363.342 165.938 364.376 167.746 365.151 169.553C365.926 171.49 366.572 173.685 367.089 175.492C368.381 174.976 370.448 173.555 370.965 172.264C371.998 169.037 372.644 166.584 371.223 163.098C370.577 161.548 370.965 162.065 369.931 160.903L369.156 159.999C368.51 159.224 366.701 158.45 365.668 157.933C365.022 152.64 366.443 154.964 363.472 148.766C360.759 143.344 359.725 147.217 358.175 142.827C357.787 141.795 357.27 139.6 356.883 138.696C355.978 136.759 352.878 134.435 350.423 133.532C348.485 132.886 347.452 133.661 345.385 133.402Z" fill="white"/>
<path fill-rule="evenodd" clip-rule="evenodd" d="M250.299 157.675C250.557 158.062 250.04 158.837 253.399 158.45C256.242 158.062 260.763 156.642 262.96 155.222C266.448 153.156 272.003 148.766 274.458 145.539C277.687 141.02 279.754 140.116 282.209 132.111C283.759 127.334 284.147 126.56 282.08 126.56C280.917 128.625 280.659 135.597 274.716 142.569C273.941 143.473 273.553 143.731 272.907 144.635C272.132 145.668 271.874 145.797 270.84 146.701C269.419 147.863 268.256 149.025 266.835 150.316C263.993 152.769 260.247 154.576 256.5 155.738C253.399 156.642 250.945 156.513 250.299 157.675Z" fill="#2B2D33"/>
<path fill-rule="evenodd" clip-rule="evenodd" d="M208.442 145.022C207.15 145.409 205.341 146.055 204.308 145.409C203.404 143.989 204.308 142.956 204.696 141.923C201.982 142.052 201.207 141.794 200.174 143.214C200.174 143.214 200.045 143.344 200.045 143.473C196.298 149.541 205.083 155.609 208.184 151.994C209.992 149.799 209.605 147.217 208.442 145.022Z" fill="#72A5AD"/>
<path fill-rule="evenodd" clip-rule="evenodd" d="M245.907 163.743L246.811 160.128H234.15C234.28 160.773 235.184 162.065 235.701 162.839C236.605 164.001 236.605 163.872 238.285 163.872C240.61 163.872 243.194 164.001 245.907 163.743Z" fill="white"/>
<path fill-rule="evenodd" clip-rule="evenodd" d="M204.567 141.924C204.179 142.956 203.404 144.118 204.179 145.409C205.213 146.055 207.022 145.28 208.313 145.022C209.218 144.247 210.381 143.86 211.026 142.827C211.672 141.924 212.189 139.729 212.189 138.438C208.055 138.308 206.634 139.6 204.567 141.924Z" fill="#2B2D33"/>
<path fill-rule="evenodd" clip-rule="evenodd" d="M255.081 249.471L256.114 248.439C255.856 247.018 254.306 244.694 253.272 244.049C252.497 244.178 252.626 244.178 252.109 244.565C252.239 245.469 254.176 249.084 255.081 249.471Z" fill="#2B2D33"/>
<path fill-rule="evenodd" clip-rule="evenodd" d="M246.941 74.3995C247.975 76.5944 249.654 75.9488 249.525 74.0122C249.396 71.9464 247.717 72.4629 246.941 74.3995Z" fill="#2B2D33"/>
</g>
<g clip-path="url(#clip1)">
<path fill-rule="evenodd" clip-rule="evenodd" d="M18.8654 148.328L18.352 157.383C15.2718 154.195 16.0419 150.624 14.6301 149.731C12.5766 150.496 14.7584 155.215 15.4002 156.745C16.8119 160.061 17.967 158.148 18.352 161.209C18.352 161.847 18.352 162.485 18.352 163.122C15.2718 163.122 13.09 158.914 12.0633 156.235C10.3948 151.899 10.2665 146.925 9.23972 146.16H8.59801L7.9563 146.542C7.57127 151.389 10.1381 159.296 13.3467 162.867C14.5018 164.143 15.7852 165.035 18.0953 165.291C17.967 168.734 17.4536 172.688 17.4536 176.386C17.4536 180.213 17.582 184.294 17.4536 188.12C17.4536 200.109 16.4269 198.961 15.1435 209.291C14.3734 215.668 13.3467 249.721 15.2718 254.058L27.8494 254.185C28.3627 255.078 28.6194 256.098 29.1328 257.119C29.7745 257.629 32.8547 259.542 31.828 256.736C28.2344 255.078 29.5178 253.292 30.2879 248.446C30.9296 244.365 32.598 237.35 33.2397 232.121C34.0098 226.509 34.0098 224.469 35.2932 218.602C37.475 208.399 37.3467 203.042 39.9135 192.456L42.6087 179.575C43.6355 172.305 45.8173 167.076 46.459 160.317C46.5873 159.424 47.6141 154.322 47.8707 153.812C51.0793 165.546 50.1809 169.499 52.6194 178.81C53.1328 180.595 53.6461 183.018 54.0312 184.804C55.0579 190.543 56.8547 197.558 58.5232 203.042C59.6782 206.741 58.9082 212.097 58.5232 216.816C58.1381 222.938 59.5499 237.095 61.3467 242.834L63.2718 248.573C63.9135 250.359 64.4269 252.655 65.3253 254.058L77.7745 254.185C78.1595 254.823 78.8012 255.843 79.1863 256.608L79.6996 256.991L79.828 257.119C80.3413 257.501 79.9563 257.374 80.598 257.629C81.6248 258.266 81.3681 258.266 82.3948 257.884V256.608C81.3681 255.971 80.598 255.588 79.9563 254.695C78.8012 253.165 79.828 253.037 79.828 250.742C79.828 248.191 79.6996 245.13 79.4429 242.579C78.8012 236.84 78.6729 230.973 78.1595 225.234C77.9028 222.556 77.7745 220.132 77.7745 217.326C77.6461 202.659 78.1595 187.227 78.2879 172.305L76.3627 147.052C75.721 141.313 73.2825 129.325 71.4857 123.713L70.5873 122.437C69.1756 122.437 68.1488 122.82 66.4804 122.82C65.0686 122.82 63.7852 122.693 62.3734 122.82C59.5499 122.948 56.983 122.948 54.2879 122.82C56.8547 106.495 56.8547 88.7672 54.1595 72.0595L51.721 52.9287C50.951 47.0619 50.6943 48.3373 49.1542 44.6387H48.1274C47.229 45.9141 48.3841 46.6793 48.8975 48.4648C49.7959 51.3982 50.4376 59.4332 50.8226 62.6217C53.2611 81.625 54.0312 82.1351 53.6461 102.414C53.6461 104.965 52.8761 120.907 52.106 122.055C50.3092 123.33 40.1702 122.948 36.8333 122.82C31.6996 122.693 26.1809 123.075 21.0472 122.82V121.035C22.9723 120.779 24.7691 121.035 26.6943 120.652C31.3146 119.632 35.4215 117.846 38.1167 114.275C39.2718 112.744 39.7852 112.489 40.5552 110.576C42.4804 105.857 42.2237 99.0978 40.6836 95.5267C36.0633 94.889 25.1542 101.011 21.3039 102.414C21.1756 98.205 21.4322 81.1148 21.0472 78.6916L19.2504 78.8191C18.8654 80.8597 18.9937 109.173 18.9937 113.51C18.9937 117.463 19.3788 146.67 18.8654 148.328ZM21.8173 104.199C24.8975 102.414 36.8333 97.95 39.2718 97.5673C39.2718 100.373 40.1702 103.562 39.4002 106.878C37.7317 114.913 30.0312 118.866 21.0472 118.739V104.71L21.8173 104.199Z" fill="#2B2D33"/>
<path fill-rule="evenodd" clip-rule="evenodd" d="M8.59965 146.16H9.24136C11.9366 145.649 15.9152 146.287 18.867 146.032V148.2C19.3804 146.542 18.9954 117.336 18.9954 113.382C18.867 109.046 18.7387 80.7321 19.2521 78.6914L21.0488 78.5639C21.4339 81.1147 21.1772 98.2049 21.3055 102.286C25.2841 100.756 36.1932 94.7614 40.6852 95.399C42.2253 98.8426 42.482 105.73 40.5569 110.449C39.7868 112.362 39.2734 112.617 38.1184 114.147C35.4232 117.718 31.3162 119.504 26.6959 120.524C24.7708 120.907 22.974 120.652 21.0488 120.907V122.692C26.1825 122.947 31.7013 122.437 36.8349 122.692C40.1718 122.82 50.1825 123.203 52.1077 121.927C53.0061 120.779 53.6478 104.837 53.6478 102.286C54.0328 81.8799 53.1344 81.3698 50.8242 62.494C50.4392 59.178 49.6692 51.2706 48.8991 48.3372C48.3857 46.5516 47.2307 45.7864 48.1291 44.511C45.9472 44.3835 44.5355 45.1487 40.0435 42.3428C39.5301 42.0878 39.0168 41.5776 38.5034 41.3225C36.5783 39.9196 36.9633 38.3891 33.2414 39.2819C28.8777 40.3022 26.6959 41.9602 23.8724 44.3835L21.8189 46.5516C21.5622 46.9342 19.5087 48.5922 17.8403 50.7604C17.3269 51.3981 17.1986 51.6532 16.8136 52.1633L4.36436 75.1203C2.43923 82.0075 -0.127619 96.802 0.000723467 103.051C0.257408 112.234 -0.127619 111.852 1.1558 121.545C1.66917 125.116 3.33762 135.446 4.62104 139.017C5.51944 141.568 4.87773 143.226 6.67452 145.267C7.31623 146.16 7.18789 145.904 8.59965 146.16Z" fill="white"/>
<path fill-rule="evenodd" clip-rule="evenodd" d="M49.1543 44.5111C50.6944 48.2098 50.9511 46.9344 51.7211 52.8012L54.1596 71.932C56.8548 88.6396 56.8548 106.495 54.288 122.693C56.9832 122.82 59.55 122.693 62.3735 122.693C63.9137 122.693 65.0687 122.693 66.4805 122.693C68.0206 122.693 69.1757 122.437 70.5875 122.31L71.2292 123.968L71.3575 123.84C71.3575 123.84 71.9992 123.33 72.2559 122.31C72.5126 121.545 72.3842 120.652 72.6409 119.759C68.2773 117.591 66.4805 116.316 65.1971 110.449C64.427 106.75 65.0687 96.4195 65.8388 95.7818C67.8923 94.7615 69.5607 96.9296 70.8441 97.95L75.4645 101.394C75.4645 100.628 75.9778 98.5877 76.1062 97.3123C76.2345 95.6543 76.3629 94.2513 76.3629 92.4658C73.411 92.0832 74.3094 88.7672 74.3094 85.9613C74.3094 79.3293 74.181 75.6306 73.2826 69.1262C73.026 67.2131 71.8709 63.0043 72.1276 61.8564C73.6677 61.7289 73.6677 61.7289 74.3094 63.3869C76.6195 69.8914 76.8762 85.1961 76.4912 91.7006C76.7479 91.7006 77.7746 91.9556 78.0313 91.9556C79.1864 92.3382 78.5447 92.2107 79.5714 92.7209C83.8067 94.889 91.3789 95.3992 96.2559 94.2513C103.186 92.5933 101.518 93.3586 108.833 90.0425C116.662 86.4714 121.026 79.4568 122.566 78.6916C122.053 78.1814 121.411 77.4162 120.898 76.6509C120.128 75.5031 120.384 75.3756 119.229 74.6103C119.358 73.2074 119.871 71.932 120.128 70.7842C119.486 70.1465 118.587 68.2334 118.202 67.3406C116.406 67.3406 117.304 67.3406 116.919 66.7029C114.994 67.5957 114.352 69.3812 108.448 70.4015C106.652 70.6566 104.47 70.5291 102.673 70.6566C97.5393 70.7842 91.7639 68.2334 87.657 65.4275L83.0366 60.9637C82.0099 59.6883 82.1383 59.3056 80.4698 57.5201C79.5714 56.6273 79.6998 57.0099 78.9297 56.2447L75.5928 52.9287C74.0527 51.5258 75.0794 52.0359 73.411 50.7605L69.5607 47.5721C65.9671 45.5314 60.4484 40.685 55.5714 40.1748C54.4163 41.3227 54.8014 41.5777 53.1329 42.8531C51.2078 43.8734 51.0794 44.1285 49.1543 44.5111Z" fill="white"/>
<path fill-rule="evenodd" clip-rule="evenodd" d="M116.791 66.7031C117.305 67.2132 116.278 67.3408 118.075 67.3408C118.845 66.5756 118.973 59.4334 125.134 58.0304C124.107 60.3261 123.337 62.4943 122.438 64.5349C121.54 66.5756 120.898 68.8713 119.872 70.7843C119.487 71.9322 119.101 73.2076 118.973 74.6105C120.257 75.2482 120 75.5033 120.642 76.6511C121.155 77.4164 121.797 78.3091 122.31 78.6918C124.492 78.8193 125.39 78.1816 127.7 78.1816C130.652 78.1816 132.321 77.9265 134.503 76.7787C136.556 75.6308 139.636 77.6714 142.203 74.3554C143.615 72.5699 143.101 71.5496 142.588 69.6365C142.203 67.8509 143.487 67.4683 142.716 64.79C142.203 62.7494 143.872 63.3871 143.872 60.7088C143.872 58.9232 142.716 58.0304 141.69 56.8826C142.075 55.8623 142.588 54.7144 142.716 53.439C142.075 52.8013 141.433 51.9086 140.92 51.2709C139.893 50.123 140.15 50.6332 139.508 48.8476C138.866 47.0621 136.941 45.7867 134.503 46.0418C132.577 52.9289 129.241 49.9955 127.444 53.184C125.39 56.7551 125.519 54.7144 121.668 57.2652C119.23 59.0508 116.406 63.0045 116.791 66.7031ZM136.299 47.9549C137.454 48.465 137.583 48.2099 137.968 49.6129L135.144 50.3781L136.299 47.9549ZM138.61 51.2709C139.251 51.9086 139.508 51.9086 140.021 52.6738C138.866 53.6941 134.118 54.3318 132.321 54.7144C131.679 54.0767 131.551 53.5666 130.909 52.9289L138.61 51.2709ZM140.92 54.5869L139.123 58.158C135.658 58.5406 134.118 56.6275 131.807 58.4131L132.321 56.5L140.92 54.5869ZM122.823 75.7584C120.77 74.483 121.412 73.08 122.182 70.7843L127.829 57.1377C128.984 55.097 128.599 55.097 129.626 54.5869C131.166 56.7551 128.727 60.0711 126.93 65.0451C125.647 68.7437 123.978 72.0597 122.823 75.7584ZM141.818 59.1783C143.101 64.5349 135.529 63.6422 133.861 61.9841C133.219 61.3465 132.706 60.1986 133.604 59.6884C134.374 59.1783 135.658 59.816 136.556 59.9435C139.251 60.7088 140.663 59.4334 141.818 59.1783ZM131.679 68.8713C129.497 71.422 129.754 73.5902 132.577 75.5033C131.166 76.3961 126.802 76.2685 124.62 76.5236L127.572 68.7437C128.342 66.8306 129.626 62.8769 130.652 61.0914C131.422 61.8566 131.551 62.7494 132.192 63.5146C131.166 64.9175 129.754 66.0654 131.679 68.8713ZM133.219 64.9175C135.401 64.5349 136.813 65.4277 138.995 65.1726C140.278 65.0451 140.663 64.4074 141.048 65.6828C142.588 70.2742 130.781 70.4017 133.219 64.9175ZM141.048 70.4017C141.433 72.6974 140.791 73.9728 138.61 74.3554C136.684 74.738 133.861 74.3554 132.706 73.2076C132.192 72.5699 131.936 71.8047 132.449 70.9119C133.091 70.0191 133.604 70.2742 134.631 70.5293C138.096 71.5496 138.481 70.7843 141.048 70.4017Z" fill="#2B2D33"/>
<path fill-rule="evenodd" clip-rule="evenodd" d="M63.786 268.215C64.556 267.577 64.171 267.832 65.5827 267.704L71.9999 267.577C80.4704 267.577 90.0961 267.832 98.31 267.449C98.1817 264.644 97.7966 264.006 96.2565 262.73C95.2298 261.71 93.818 261.072 92.2779 260.307C89.7111 259.032 85.9892 257.119 82.6523 256.864V258.139C81.6255 258.522 81.8822 258.522 80.8555 257.884C80.3421 257.501 80.7271 257.756 80.0854 257.374L79.9571 257.246L79.4437 256.864C72.8983 258.904 67.1228 256.481 64.4277 256.354L63.4009 259.032C63.2726 260.052 63.2726 261.2 63.2726 262.22C62.8876 265.791 62.3742 267.96 63.786 268.215Z" fill="white"/>
<path fill-rule="evenodd" clip-rule="evenodd" d="M14.3752 267.577L49.541 267.449C49.1559 264.771 49.541 264.644 47.2308 262.858C43.7655 260.18 45.049 261.583 42.6105 260.18C40.3003 258.904 34.7816 256.609 31.8297 256.864C32.9848 259.669 29.7762 257.756 29.1345 257.246C28.2361 258.011 23.2308 258.011 21.6907 257.884C18.3538 257.629 17.4554 256.609 16.0436 256.736C13.8618 256.864 14.2468 265.409 14.3752 267.577Z" fill="white"/>
<path fill-rule="evenodd" clip-rule="evenodd" d="M21.0488 104.582V118.611C30.0328 118.739 37.7333 114.913 39.4018 106.75C40.0435 103.307 39.2734 100.246 39.2734 97.4399C36.8349 97.9501 24.8991 102.414 21.8189 104.072L21.0488 104.582Z" fill="white"/>
<path fill-rule="evenodd" clip-rule="evenodd" d="M72.7706 117.591C73.2839 112.744 74.439 108.663 75.0807 103.817L67.3802 97.8223C66.3535 100.246 66.6102 107.388 67.2519 110.066C68.2786 114.402 69.3053 115.805 72.7706 117.591Z" fill="white"/>
<path fill-rule="evenodd" clip-rule="evenodd" d="M18.8659 148.328V146.16C15.914 146.415 11.9354 145.649 9.24023 146.287C10.1386 147.052 10.3953 152.026 12.0638 156.363C13.0905 159.041 15.4007 163.25 18.3525 163.25C18.3525 162.612 18.3525 161.847 18.3525 161.337C18.0958 158.276 16.9408 160.189 15.4007 156.873C14.759 155.342 12.4488 150.623 14.6306 149.858C16.0424 150.751 15.2723 154.322 18.3525 157.511L18.8659 148.328Z" fill="white"/>
<path fill-rule="evenodd" clip-rule="evenodd" d="M63.7871 268.214C63.7871 270.255 64.8138 269.872 66.8673 269.872C71.8727 270 97.1561 270.127 98.4395 269.745C98.9529 268.597 98.8245 268.342 98.3112 267.577C90.0973 267.832 80.4716 267.704 72.001 267.704L65.5839 267.832C64.1721 267.832 64.5572 267.577 63.7871 268.214Z" fill="#2B2D33"/>
<path fill-rule="evenodd" clip-rule="evenodd" d="M14.3747 267.577C14.2464 270 14.6314 269.617 17.4549 269.617L42.61 269.745C46.332 269.745 51.4656 270.383 49.5405 267.449L14.3747 267.577Z" fill="#2B2D33"/>
<path fill-rule="evenodd" clip-rule="evenodd" d="M72.77 119.759L73.6684 118.228C73.2834 117.591 73.9251 118.101 72.8984 117.591C69.3048 115.805 68.4064 114.402 67.3797 110.066C66.7379 107.388 66.4813 100.245 67.508 97.8221L75.2085 103.816C76.492 103.434 75.9786 101.903 75.5936 101.393L70.9732 97.9497C69.5615 96.9294 67.893 94.7612 65.9679 95.7815C65.3262 96.5468 64.5561 106.75 65.3262 110.449C66.6096 116.315 68.2781 117.591 72.77 119.759Z" fill="#2B2D33"/>
<path fill-rule="evenodd" clip-rule="evenodd" d="M76.3635 92.4659V91.7007C76.7485 85.1962 76.4918 69.764 74.1817 63.3871C73.54 61.729 73.54 61.6015 71.9999 61.8566C71.7432 63.0044 72.8983 67.2132 73.1549 69.1263C73.925 75.6308 74.1817 79.457 74.1817 85.9615C74.31 88.7673 73.4116 92.0833 76.3635 92.4659Z" fill="#2B2D33"/>
<path fill-rule="evenodd" clip-rule="evenodd" d="M131.679 68.8712C129.753 66.0653 131.165 64.9175 132.32 63.5145C131.679 62.7493 131.422 61.8565 130.78 61.0913C129.753 62.8769 128.47 66.8306 127.7 68.7436L124.748 76.5235C126.802 76.396 131.294 76.396 132.705 75.5032C129.753 73.4626 129.497 71.422 131.679 68.8712Z" fill="#72A5AD"/>
<path fill-rule="evenodd" clip-rule="evenodd" d="M122.824 75.7584C123.851 72.0598 125.648 68.7437 126.931 65.0451C128.728 59.9436 131.167 56.7551 129.626 54.5869C128.728 55.0971 128.985 55.0971 127.83 57.1377L122.183 70.7844C121.541 73.0801 120.771 74.483 122.824 75.7584Z" fill="white"/>
<path fill-rule="evenodd" clip-rule="evenodd" d="M118.203 67.3406C118.588 68.1058 119.487 70.1465 120.128 70.7842C121.027 68.8711 121.668 66.5754 122.695 64.5348C123.593 62.4941 124.364 60.326 125.39 58.0303C119.102 59.4332 118.845 66.5754 118.203 67.3406Z" fill="white"/>
<path fill-rule="evenodd" clip-rule="evenodd" d="M134.759 70.5291C133.732 70.274 133.218 70.0189 132.577 70.9117C131.935 71.8045 132.192 72.5697 132.833 73.2074C133.86 74.3552 136.812 74.7378 138.737 74.3552C140.919 73.8451 141.561 72.6972 141.176 70.4015C138.481 70.7841 138.095 71.5494 134.759 70.5291Z" fill="white"/>
<path fill-rule="evenodd" clip-rule="evenodd" d="M133.218 64.9176C130.652 70.4018 142.587 70.2742 141.176 65.6828C140.791 64.4074 140.406 65.0451 139.122 65.1726C136.94 65.4277 135.4 64.6625 133.218 64.9176Z" fill="white"/>
<path fill-rule="evenodd" clip-rule="evenodd" d="M141.819 59.1782C140.664 59.4333 139.252 60.5811 136.429 60.071C135.53 59.9435 134.247 59.3058 133.477 59.8159C132.578 60.3261 133.22 61.4739 133.733 62.1116C135.53 63.7696 143.102 64.6624 141.819 59.1782Z" fill="white"/>
<path fill-rule="evenodd" clip-rule="evenodd" d="M132.32 56.5L131.807 58.4131C134.117 56.6275 135.785 58.5406 139.122 58.158L140.919 54.5869L132.32 56.5Z" fill="#72A5AD"/>
<path fill-rule="evenodd" clip-rule="evenodd" d="M130.908 53.0564C131.55 53.8217 131.678 54.2043 132.32 54.842C134.117 54.4594 138.865 53.6941 140.021 52.8014C139.507 52.0361 139.25 52.0361 138.609 51.3984L130.908 53.0564Z" fill="white"/>
<path fill-rule="evenodd" clip-rule="evenodd" d="M135.016 50.3778L137.839 49.6126C137.454 48.2097 137.326 48.4647 136.171 47.9546L135.016 50.3778Z" fill="white"/>
<path fill-rule="evenodd" clip-rule="evenodd" d="M17.8394 44.3835C16.8126 49.7401 15.4009 51.143 17.5827 56.8823C19.2511 61.2186 20.2779 63.8969 23.7431 65.555C26.695 67.0854 32.8554 66.5753 35.9356 65.2999C40.4276 63.5143 39.5292 58.5403 39.0158 53.8214C33.3688 44.8936 39.9142 45.4038 40.4276 38.5167C44.2779 39.537 45.6896 39.9196 49.6682 38.8993C50.8233 40.9399 50.0533 40.8124 51.9784 42.5979C53.5185 44.0009 54.5452 43.6182 56.2137 44.6386C57.8821 45.1487 59.4222 45.4038 61.3474 45.7864C64.1709 46.4241 64.1709 46.4241 65.9677 45.0212C67.5078 35.9659 64.2993 36.221 61.4757 31.7571C58.3955 26.9106 62.7591 22.9569 63.0158 17.2177C63.2725 12.7538 60.449 9.4378 57.8821 8.28995C56.5987 7.65226 55.4436 7.65226 54.1602 7.26964C51.3367 6.37687 51.8501 4.46378 49.6682 2.67824C44.1495 -1.53055 32.7271 -0.892855 30.0319 4.8464C28.2351 8.67257 28.7484 10.7132 28.3634 12.2437C27.7217 14.4118 24.5132 14.5394 22.3313 15.6872C18.6094 17.6003 15.9142 23.0845 17.326 29.0788C18.2244 33.4151 20.7912 37.1138 17.8394 44.3835ZM36.449 17.9829C37.8607 14.1567 40.4276 11.7335 45.3046 11.3509C47.3581 11.2233 49.9249 12.2437 51.3367 13.264C53.0051 14.4118 53.5185 15.5597 54.6736 17.6003C56.0853 19.6409 57.8821 19.6409 58.1388 23.212C58.3955 26.9106 56.9837 27.2933 54.9303 28.9513C53.9035 31.8847 53.7752 33.16 52.1067 35.3282C50.9517 36.8587 48.6415 37.7515 45.9463 37.879C40.941 38.0065 37.0907 35.2007 36.449 29.7165C35.5506 28.4411 36.7057 29.2063 35.2939 28.186C34.7805 27.8034 34.6522 27.931 33.8821 27.1657C31.7003 24.4874 32.342 19.3858 36.449 17.9829Z" fill="#2B2D33"/>
<path fill-rule="evenodd" clip-rule="evenodd" d="M39.0149 53.6938C44.1486 53.6938 45.4321 55.4794 50.5658 52.4184C52.8759 51.0155 55.5711 47.9546 56.2128 44.511C54.5444 43.4907 53.5176 43.8733 51.9775 42.4704C50.0524 40.6849 50.8224 40.8124 49.6674 38.7718C45.6887 39.7921 44.1486 39.4095 40.4267 38.3892C39.9133 45.2763 33.3679 44.7661 39.0149 53.6938Z" fill="white"/>
<path fill-rule="evenodd" clip-rule="evenodd" d="M36.4502 29.844C36.9636 35.3282 40.9422 38.0065 45.9476 38.0065C48.6427 38.0065 50.9529 36.9862 52.108 35.4557C53.9048 33.16 53.9048 32.0122 54.8032 28.9512C52.108 29.3338 49.7978 28.9512 48.3861 27.5483C46.2042 25.2526 48.8994 23.0844 44.5358 23.7221C43.3807 25.7627 44.1508 26.6555 42.0973 27.9309C40.4288 28.9512 39.0171 28.9512 36.7069 28.9512C36.3219 29.4614 36.0652 27.9309 36.4502 29.844Z" fill="white"/>
<path fill-rule="evenodd" clip-rule="evenodd" d="M36.4498 17.9831C32.3429 19.386 31.7012 24.4875 34.1397 27.2934C34.7814 28.0586 35.0381 27.9311 35.5514 28.3137C36.8349 29.334 35.8081 28.5688 36.7065 29.8442C36.3215 27.9311 36.5782 29.4616 36.9632 28.8239C39.145 28.9514 40.6851 28.8239 42.3536 27.8036C44.4071 26.5282 43.7653 25.6354 44.7921 23.5948C49.1557 22.9571 46.4605 25.1252 48.6423 27.4209C50.0541 28.9514 52.3643 29.2065 55.0595 28.8239C57.1129 27.1659 58.5247 26.7832 58.268 23.0846C58.0113 19.5135 56.3429 19.5135 54.8028 17.4729L53.2627 17.9831C51.5942 18.2381 49.7974 18.1106 48.514 20.2788C47.3589 22.1918 48.514 21.8092 44.5354 21.8092C42.8669 20.4063 41.9685 17.6004 36.4498 17.9831ZM41.4552 25.6354C41.1985 26.018 41.1985 26.1456 40.9418 26.4006H39.7867L40.1718 26.9108C38.375 27.5485 37.4766 26.7832 35.9365 26.4006C35.9365 25.1252 36.0648 24.36 36.0648 23.0846C36.0648 22.5745 35.9365 22.1918 36.0648 21.6817C36.3215 18.1106 39.9151 19.6411 41.0702 20.6614C41.7119 21.2991 42.0969 21.8092 42.2252 22.8295C42.3536 23.3397 42.3536 23.8499 42.2252 24.36C41.7119 26.018 41.7119 25.3803 41.4552 25.6354ZM52.1076 26.9108C51.2092 26.7832 50.9525 26.6557 50.3108 26.2731C49.2841 26.7832 48.899 23.0846 49.7974 21.6817C50.6958 20.4063 53.1343 19.5135 54.8028 20.7889C55.1878 21.1715 56.4712 28.5688 52.1076 26.9108Z" fill="#72A5AD"/>
<path fill-rule="evenodd" clip-rule="evenodd" d="M36.4492 17.9829C42.0963 17.6003 42.8663 20.2787 44.2781 21.9367C48.2567 22.0642 47.1016 22.3193 48.2567 20.4062C49.5401 18.1105 51.3369 18.3656 53.0054 18.1105L54.5455 17.6003C53.3904 15.4322 52.877 14.4119 51.2086 13.264C49.7968 12.2437 47.3583 11.2234 45.1765 11.3509C40.2995 11.7335 37.861 14.2843 36.4492 17.9829Z" fill="white"/>
<path fill-rule="evenodd" clip-rule="evenodd" d="M39.6589 26.5281L38.8888 25.8904C39.1455 24.7426 39.2738 24.6151 40.4289 24.36C41.4557 25.1252 41.199 24.6151 41.3273 25.7629C41.7123 25.3803 41.7123 26.018 42.0974 24.4875C42.2257 23.9774 42.2257 23.4672 42.0974 22.9571C41.969 21.9367 41.584 21.4266 40.9423 20.7889C39.7872 19.7686 36.1936 18.3656 35.9369 21.8092C35.9369 22.3194 35.9369 22.702 35.9369 23.2121C35.9369 24.4875 35.8086 25.2528 35.8086 26.5281C37.2204 26.9108 38.2471 27.676 40.0439 27.0383L39.6589 26.5281Z" fill="white"/>
<path fill-rule="evenodd" clip-rule="evenodd" d="M50.3113 26.273L50.568 24.8701C51.5947 24.7426 51.5947 24.4875 52.4931 25.1252C52.8781 26.273 52.7498 26.1455 52.1081 26.9107C56.4717 28.5687 55.1883 21.1715 54.9316 20.7889C53.2632 19.5135 50.6963 20.4062 49.9263 21.6816C48.8995 23.0846 49.2846 26.7832 50.3113 26.273Z" fill="white"/>
<path fill-rule="evenodd" clip-rule="evenodd" d="M50.3105 26.273C50.9523 26.6557 51.2089 26.7832 52.1073 26.9107C52.8774 26.1455 52.8774 26.273 52.4924 25.1252C51.594 24.4875 51.594 24.7426 50.5672 24.8701L50.3105 26.273Z" fill="#2B2D33"/>
<path fill-rule="evenodd" clip-rule="evenodd" d="M39.6568 26.528H40.8119C41.0685 26.2729 41.0685 26.1454 41.3252 25.7628C41.1969 24.7425 41.4536 25.2526 40.4268 24.3599C39.2717 24.6149 39.1434 24.7425 38.8867 25.8903L39.6568 26.528Z" fill="#2B2D33"/>
</g>
<defs>
<clipPath id="clip0">
<rect width="262" height="216" fill="white" transform="translate(164 54)"/>
</clipPath>
<clipPath id="clip1">
<rect width="144" height="270" fill="white"/>
</clipPath>
</defs>
</svg>
