<svg width="16" height="17" viewBox="0 0 16 17" fill="none" xmlns="http://www.w3.org/2000/svg">
<g clip-path="url(#clip0)">
<path d="M6.425 8.525C6.425 9.4 7.125 10.1 8 10.1C8.875 10.1 9.575 9.375 9.575 8.525C9.575 7.65 8.875 6.95 8 6.95C7.125 6.95 6.425 7.65 6.425 8.525Z" fill="#2B2D33"/>
<path fill-rule="evenodd" clip-rule="evenodd" d="M10.025 12.5C11.125 12.5 12 11.625 12 10.525V6.475C12 5.375 11.125 4.5 10.025 4.5H5.975C4.875 4.5 4 5.375 4 6.475V10.525C4 11.625 4.875 12.5 5.975 12.5H10.025ZM5.425 8.5C5.425 7.075 6.575 5.925 8 5.925C9.425 5.925 10.575 7.075 10.575 8.5C10.575 9.925 9.425 11.075 8 11.075C6.575 11.075 5.425 9.925 5.425 8.5ZM11.225 5.95C11.225 5.60312 10.9469 5.325 10.6 5.325C10.2531 5.325 9.975 5.60312 9.975 5.95C9.975 6.29688 10.2531 6.575 10.6 6.575C10.9469 6.575 11.225 6.29688 11.225 5.95Z" fill="#2B2D33"/>
<path fill-rule="evenodd" clip-rule="evenodd" d="M16 8.5C16 12.9183 12.4183 16.5 8 16.5C3.58172 16.5 0 12.9183 0 8.5C0 4.08172 3.58172 0.5 8 0.5C12.4183 0.5 16 4.08172 16 8.5ZM3 6.475C3 4.825 4.325 3.5 5.975 3.5H10.025C11.675 3.5 13 4.85 13 6.475V10.525C13 12.175 11.675 13.5 10.025 13.5H5.975C4.325 13.5 3 12.175 3 10.525V6.475Z" fill="#2B2D33"/>
</g>
<defs>
<clipPath id="clip0">
<rect width="16" height="16" fill="white" transform="translate(0 0.5)"/>
</clipPath>
</defs>
</svg>
