<svg width="1440" height="820" viewBox="0 0 1440 820" fill="none" xmlns="http://www.w3.org/2000/svg">
<g clip-path="url(#clip0)">
<path fill-rule="evenodd" clip-rule="evenodd" d="M-10.3429 229.117L20.8571 241.867L32 273.742L21.9714 283.117L11.2 251.242L-20 238.492L-10.3429 229.117Z" fill="#2B2D33"/>
<path fill-rule="evenodd" clip-rule="evenodd" d="M919 642.065L906.707 669.147L919 696.524H931L918.707 669.147L931 642.065H919Z" fill="white"/>
<path fill-rule="evenodd" clip-rule="evenodd" d="M871 642.065L883.293 669.147L871 696.524H859L871.293 669.147L859 642.065H871Z" fill="white"/>
<path fill-rule="evenodd" clip-rule="evenodd" d="M867.488 647.069L894.707 659.433L921.634 647.069V635L894.707 647.364L867.488 635V647.069Z" fill="white"/>
<path fill-rule="evenodd" clip-rule="evenodd" d="M867.488 690.931L894.707 678.567L921.634 690.931V703L894.707 690.636L867.488 703V690.931Z" fill="white"/>
<path fill-rule="evenodd" clip-rule="evenodd" d="M440.477 45.0964L431.955 63.7831L440.477 82.4699H449L440.477 63.7831L449 45.0964H440.477Z" fill="#2B2D33"/>
<path fill-rule="evenodd" clip-rule="evenodd" d="M407.239 45.0964L415.761 63.7831L407.239 82.4699H399L407.523 63.7831L399 45.0964H407.239Z" fill="#2B2D33"/>
<path fill-rule="evenodd" clip-rule="evenodd" d="M404.966 48.494L423.716 56.988L442.466 48.494V40L423.716 48.494L404.966 40V48.494Z" fill="#2B2D33"/>
<path fill-rule="evenodd" clip-rule="evenodd" d="M404.966 78.506L423.716 70.0121L442.466 78.506V87L423.716 78.506L404.966 87V78.506Z" fill="#2B2D33"/>
<path fill-rule="evenodd" clip-rule="evenodd" d="M91.7628 616.4L79.5257 643.543L91.7628 670.685H104L91.4783 643.543L104 616.4H91.7628Z" fill="#2B2D33"/>
<path fill-rule="evenodd" clip-rule="evenodd" d="M43.9526 616.4L56.1897 643.543L43.9526 670.685H32L44.2371 643.543L32 616.4H43.9526Z" fill="#2B2D33"/>
<path fill-rule="evenodd" clip-rule="evenodd" d="M40.5375 621.257L67.5731 633.543L94.6087 621.257V609.257L67.5731 621.543L40.5375 609.257V621.257Z" fill="#2B2D33"/>
<path fill-rule="evenodd" clip-rule="evenodd" d="M40.5375 664.971L67.5731 652.685L94.6087 664.971V677.257L67.5731 664.685L40.5375 677.257V664.971Z" fill="#2B2D33"/>
<path fill-rule="evenodd" clip-rule="evenodd" d="M219.592 124.927L207.891 150.976L219.592 176.732H231L219.299 150.976L231 124.927H219.592Z" fill="#72A5AD"/>
<path fill-rule="evenodd" clip-rule="evenodd" d="M156.408 124.927L168.109 150.976L156.408 176.732H145L156.701 150.976L145 124.927H156.408Z" fill="#72A5AD"/>
<path fill-rule="evenodd" clip-rule="evenodd" d="M162.258 121.415L188 133.122L213.741 121.415V110L188 121.707L162.258 110V121.415Z" fill="#72A5AD"/>
<path fill-rule="evenodd" clip-rule="evenodd" d="M162.258 182.585L188 170.878L213.741 182.585V194L188 182.293L162.258 194V182.585Z" fill="#72A5AD"/>
<path fill-rule="evenodd" clip-rule="evenodd" d="M1153 727.137L1168.68 752.342L1198.12 757L1205 747.137L1175.29 742.205L1159.6 717L1153 727.137Z" fill="#2B2D33"/>
<path fill-rule="evenodd" clip-rule="evenodd" d="M569 170.474L576.535 192.993L598.023 202L605 195.526L583.233 186.519L575.977 164L569 170.474Z" fill="#72A5AD"/>
<path fill-rule="evenodd" clip-rule="evenodd" d="M605 662.526L597.465 640.289L575.977 631L569 637.474L590.488 646.763L598.023 669L605 662.526Z" fill="#2B2D33"/>
<path fill-rule="evenodd" clip-rule="evenodd" d="M179.086 450L217.541 434.39L231 395.502L218.914 384L205.455 422.888L167 438.498L179.086 450Z" fill="white"/>
<path fill-rule="evenodd" clip-rule="evenodd" d="M1151.53 226.143L1139.78 251.857L1151.53 277.571H1163L1151.25 251.857L1163 226.143H1151.53Z" fill="#2B2D33"/>
<path fill-rule="evenodd" clip-rule="evenodd" d="M1088.47 226.143L1100.22 251.857L1088.47 277.571H1077L1088.75 251.857L1077 226.143H1088.47Z" fill="#2B2D33"/>
<path fill-rule="evenodd" clip-rule="evenodd" d="M1094.2 222.429L1120 234.143L1146.09 222.429V211L1120 222.714L1094.2 211V222.429Z" fill="#2B2D33"/>
<path fill-rule="evenodd" clip-rule="evenodd" d="M1094.2 283.571L1120 271.857L1146.09 283.571V295L1120 283.286L1094.2 295V283.571Z" fill="#2B2D33"/>
<path fill-rule="evenodd" clip-rule="evenodd" d="M1130.61 244.143L1126.59 252.714L1130.61 261.286H1134.33L1130.61 252.714L1134.33 244.143H1130.61Z" fill="#2B2D33"/>
<path fill-rule="evenodd" clip-rule="evenodd" d="M1109.39 244.143L1113.41 252.714L1109.39 261.286H1105.67L1109.39 252.714L1105.67 244.143H1109.39Z" fill="#2B2D33"/>
<path fill-rule="evenodd" clip-rule="evenodd" d="M1111.4 242.714L1120 246.714L1128.6 242.714V239L1120 243L1111.4 239V242.714Z" fill="#2B2D33"/>
<path fill-rule="evenodd" clip-rule="evenodd" d="M1111.4 263.286L1120 259.286L1128.6 263.286V267L1120 263.286L1111.4 267V263.286Z" fill="#2B2D33"/>
<path fill-rule="evenodd" clip-rule="evenodd" d="M329.295 730.826L321.264 706.441L297.457 696.688L290 703.859L313.806 713.613L321.837 737.998L329.295 730.826Z" fill="#72A5AD"/>
<path fill-rule="evenodd" clip-rule="evenodd" d="M346.791 716.482L338.473 692.384L314.954 682.344L307.209 689.516L331.016 699.269L339.047 723.654L346.791 716.482Z" fill="#72A5AD"/>
<path fill-rule="evenodd" clip-rule="evenodd" d="M364 702.138L355.969 678.041L332.163 668L324.705 675.172L348.225 684.926L356.543 709.31L364 702.138Z" fill="#72A5AD"/>
<path fill-rule="evenodd" clip-rule="evenodd" d="M1337.84 126.07L1348.19 95.8212L1377.51 83.7218L1387 92.3642L1357.39 104.752L1347.33 135L1337.84 126.07Z" fill="#2B2D33"/>
<path fill-rule="evenodd" clip-rule="evenodd" d="M1316.28 108.497L1326.63 77.9603L1355.95 65.8609L1365.44 74.5033L1336.11 86.8907L1325.76 117.139L1316.28 108.497Z" fill="#2B2D33"/>
<path fill-rule="evenodd" clip-rule="evenodd" d="M1295 90.6358L1305.06 60.3874L1334.39 48L1343.87 56.9305L1314.55 69.0298L1304.2 99.2782L1295 90.6358Z" fill="#2B2D33"/>
<path fill-rule="evenodd" clip-rule="evenodd" d="M1382.76 610.842L1374.24 629.642L1382.76 648.442H1391L1382.48 629.642L1391 610.842H1382.76Z" fill="#2B2D33"/>
<path fill-rule="evenodd" clip-rule="evenodd" d="M1349.52 610.842L1358.05 629.642L1349.52 648.442H1341L1349.52 629.642L1341 610.842H1349.52Z" fill="#2B2D33"/>
<path fill-rule="evenodd" clip-rule="evenodd" d="M1347.25 614.261L1366 622.806L1384.75 614.261V606L1366 614.545L1347.25 606V614.261Z" fill="#2B2D33"/>
<path fill-rule="evenodd" clip-rule="evenodd" d="M1347.25 644.739L1366 636.194L1384.75 644.739V653L1366 644.455L1347.25 653V644.739Z" fill="#2B2D33"/>
<path fill-rule="evenodd" clip-rule="evenodd" d="M989.761 91.8425L981.239 110.642L989.761 129.442H998L989.477 110.642L998 91.8425H989.761Z" fill="white"/>
<path fill-rule="evenodd" clip-rule="evenodd" d="M956.523 91.8425L965.045 110.642L956.523 129.442H948L956.523 110.642L948 91.8425H956.523Z" fill="white"/>
<path fill-rule="evenodd" clip-rule="evenodd" d="M954.25 95.2606L973 103.806L991.75 95.2606V87L973 95.5455L954.25 87V95.2606Z" fill="white"/>
<path fill-rule="evenodd" clip-rule="evenodd" d="M954.25 125.739L973 117.194L991.75 125.739V134L973 125.455L954.25 134V125.739Z" fill="white"/>
<path fill-rule="evenodd" clip-rule="evenodd" d="M1169.71 483.39L1160.12 504.136L1169.71 525.169H1179L1169.41 504.136L1179 483.39H1169.71Z" fill="#72A5AD"/>
<path fill-rule="evenodd" clip-rule="evenodd" d="M1118.29 483.39L1127.88 504.136L1118.29 525.169H1109L1118.29 504.136L1109 483.39H1118.29Z" fill="#72A5AD"/>
<path fill-rule="evenodd" clip-rule="evenodd" d="M1122.94 480.22L1143.85 489.729L1165.06 480.22V471L1143.85 480.508L1122.94 471V480.22Z" fill="#72A5AD"/>
<path fill-rule="evenodd" clip-rule="evenodd" d="M1122.94 529.78L1143.85 520.271L1165.06 529.78V539L1143.85 529.78L1122.94 539V529.78Z" fill="#72A5AD"/>
<path fill-rule="evenodd" clip-rule="evenodd" d="M1341 403.526L1333.47 381.289L1311.98 372L1305 378.474L1326.77 387.763L1334.02 410L1341 403.526Z" fill="white"/>
</g>
<defs>
<clipPath id="clip0">
<rect width="1440" height="820" fill="white"/>
</clipPath>
</defs>
</svg>
